

<svg xmlns="http://www.w3.org/2000/svg" width="30" height="30" fill="currentColor" class="bi bi-chat"
            viewBox="0 0 16 16">
            <path d="M0.9 6 l3 0 l0 14 l-3 0 l0 -14 z M5.9 10 l3 0 l0 10 l-3 0 l0 -10 z M7.4 9.06 c-1.02 0 -1.74 -0.72 -1.74 -1.74 c0 -1.04 0.72 -1.72 1.74 -1.72 c1.04 0 1.72 0.68 1.72 1.72 c0 1.06 -0.66 1.74 -1.72 1.74 z M16.4 10.34 l0 2.78 l-2.46 0 l0 6.88 l-3 0 l0 -9.98 c0 -3.32 2.44 -5.12 5.52 -5.12 c0.1 0 0.24 0 0.38 0.02 s0.3 0.06 0.44 0.08 l0 2.9 c-0.1 -0.02 -0.22 -0.04 -0.36 -0.06 s-0.26 -0.04 -0.36 -0.04 c-0.5 0 -0.9 0.06 -1.24 0.16 c-0.56 0.2 -1.06 0.58 -1.24 1.18 c-0.1 0.26 -0.14 0.56 -0.14 0.86 l0 0.34 l2.46 0 z M20.659999999999997 13.8 c0.3 0.1 0.64 0.18 1 0.22 c0.36 0.06 0.7 0.08 1.02 0.08 c0.4 0 1.42 -0.08 1.42 -0.66 c0 -0.62 -0.88 -0.64 -1.32 -0.64 c-0.88 0 -1.64 0.2 -2.12 1 z M26.319999999999997 16.88 l0 2.8 c-1.12 0.26 -2.24 0.44 -3.4 0.44 c-3.18 0 -5.54 -1.86 -5.54 -5.08 c0 -3.18 2.28 -5.14 5.3 -5.14 c2.06 0 4.44 0.98 4.44 3.32 c0 2.32 -2.52 3.18 -4.46 3.18 c-0.74 0 -1.48 -0.2 -2.16 -0.48 c0.4 1.12 1.6 1.3 2.64 1.3 c0.54 0 1.08 -0.02 1.62 -0.1 c0.5 -0.04 1.08 -0.1 1.56 -0.24 z M28.499999999999996 6 l3 0 l0 14 l-3 0 l0 -14 z M40.63999999999999 10 l3 0 l0 5 c0 3.06 -2.12 5.1 -5.1 5.1 c-3.06 0 -5.1 -2.14 -5.1 -5.1 l0 -5 l3 0 l0 5 c0 1.34 0.68 2.32 2.1 2.32 c1.46 0 2.1 -0.96 2.1 -2.32 l0 -5 z M48.63999999999999 15 l0 5 l-3 0 l0 -4.98 c0 -3.32 2.44 -5.12 5.52 -5.12 c0.1 0 0.24 0 0.38 0.02 s0.3 0.06 0.44 0.08 l0 2.9 c-0.1 -0.02 -0.22 -0.04 -0.36 -0.06 s-0.26 -0.04 -0.36 -0.04 c-0.5 0 -0.9 0.06 -1.24 0.16 c-0.56 0.2 -1.06 0.58 -1.24 1.18 c-0.1 0.26 -0.14 0.56 -0.14 0.86 z M59.07999999999999 10 l3 0 l0 1 c0 1.52 -0.52 2.98 -1.64 4.02 l2.64 4.98 l-3.7 0 l-3.1 -5.92 l0 5.92 l-3 0 l0 -14 l3 0 l0 7.54 l0.46 0 c1.62 0 2.34 -1.08 2.34 -2.56 l0 -0.98 z"></path>
</svg>


