<?xml version="1.0" encoding="utf-8"?>
<!-- Generator: Adobe Illustrator 23.0.5, SVG Export Plug-In . SVG Version: 6.00 Build 0)  -->
<svg version="1.1" xmlns="http://www.w3.org/2000/svg" xmlns:xlink="http://www.w3.org/1999/xlink" x="0px" y="0px"
	 viewBox="0 0 500 500" style="enable-background:new 0 0 500 500;" xml:space="preserve">
<style type="text/css">
	.st0{fill:#D7E3FC;}
	.st1{fill:#DADAD9;}
	.st2{fill:#7896D6;}
	.st3{fill:#FFFFFF;}
	.st4{fill:#BFD22D;stroke:#FFFFFF;stroke-width:2;stroke-linecap:round;stroke-linejoin:round;stroke-miterlimit:10;}
	.st5{fill:#BFD22D;}
	.st6{fill:#CCA433;}
	.st7{fill:#DA753A;}
	.st8{fill:#E74740;}
	.st9{opacity:0.3;fill:#E97E47;}
	.st10{fill:#E97E47;}
	.st11{fill:#2D320A;}
	.st12{fill:none;stroke:#D7E3FC;stroke-width:2;stroke-miterlimit:10;}
	.st13{opacity:0.3;fill:none;stroke:#E97E47;stroke-width:2;stroke-miterlimit:10;}
	.st14{fill:#EBA52D;}
	.st15{fill:none;stroke:#2D320A;stroke-width:2;stroke-miterlimit:10;}
	.st16{fill:#EFCAA6;}
	.st17{fill:none;stroke:#2D320A;stroke-miterlimit:10;}
	.st18{fill:none;stroke:#FFFFFF;stroke-miterlimit:10;}
	.st19{fill:none;stroke:#7896D6;stroke-width:2;stroke-linecap:round;stroke-miterlimit:10;}
	.st20{clip-path:url(#SVGID_2_);}
	.st21{opacity:0.5;fill:#E74740;}
	.st22{clip-path:url(#SVGID_4_);}
	.st23{fill:#D3E06C;}
	.st24{fill:#E3ECFF;}
	.st25{fill:none;stroke:#2D320A;stroke-linecap:round;stroke-linejoin:round;stroke-miterlimit:10;}
	.st26{fill:none;stroke:#D7E3FC;stroke-width:3;stroke-miterlimit:10;}
	.st27{fill:none;stroke:#D7E3FC;stroke-width:3;stroke-miterlimit:10;stroke-dasharray:2.4599,2.4599,2.4599,2.4599;}
	.st28{fill:none;stroke:#D7E3FC;stroke-width:3;stroke-miterlimit:10;stroke-dasharray:2.4599,2.4599,2.4599,2.4599,2.4599,2.4599;}
	.st29{fill:none;stroke:#D7E3FC;stroke-width:3;stroke-miterlimit:10;stroke-dasharray:2.1799,2.1799,2.1799,2.1799;}
	.st30{fill:#AEC7FC;}
	.st31{fill:none;stroke:#7896D6;stroke-width:4;stroke-miterlimit:10;}
	.st32{fill:none;stroke:#BFD22D;stroke-width:3;stroke-linecap:round;stroke-linejoin:round;stroke-miterlimit:10;}
</style>
<g id="BACKGROUND">
</g>
<g id="OBJECTS">
	<g>
		<g>
			<polygon class="st0" points="366.14,146.06 366.14,233.69 421.78,247.8 421.78,111.16 			"/>
			<polygon class="st1" points="366.14,228.31 389.75,231.13 389.75,165.6 366.14,173.2 			"/>
			<polygon class="st2" points="356.13,170.31 356.13,222.7 385.91,226.26 385.91,160.73 			"/>
			<g>
				<g>
					<path class="st3" d="M360.8,177.14c0.91-3.2,3.49-0.63,5.07-1.03c2.01-0.51,0.89-1.63,4.04-1.78c1-0.05,1.79,0.46,2.88,0.22
						c1.92-0.43,3.32-1.84,5.41-1.75c0.97,0.04,0.96-1.46,0-1.5c-2.15-0.09-3.41,1.23-5.37,1.7c-1.8,0.42-3.25-0.88-4.93-0.33
						c-0.4,0.13-0.67,0.48-1.05,0.62c-0.24,0.17-0.43,0.39-0.57,0.66c-0.98,0.56-1.9,0.57-2.76,0.04c-0.66,0-1.08-0.13-1.71,0.04
						c-1.4,0.38-2.08,1.38-2.46,2.71C359.09,177.67,360.54,178.07,360.8,177.14L360.8,177.14z"/>
				</g>
			</g>
			<g>
				<g>
					<path class="st3" d="M361.09,183.35c2.75-2.27,5.79-1.39,8.98-2.14c3.04-0.71,5.73-2.02,8.95-1.82c0.96,0.06,0.96-1.44,0-1.5
						c-4.06-0.25-7.48,1.98-11.45,2.24c-3.31,0.21-4.83-0.07-7.54,2.16C359.28,182.9,360.35,183.96,361.09,183.35L361.09,183.35z"/>
				</g>
			</g>
			<g>
				<g>
					<path class="st3" d="M362.55,190.28c1.03-2.63,4.9-0.89,6.76-1.14c1.05-0.14,1.6-0.47,2.44-1c1.81-1.14,2.61-0.95,4.6-0.88
						c1.58,0.05,2.78-0.82,4-1.74c0.76-0.57,0.02-1.88-0.76-1.3c-2.19,1.64-4.13,0.61-6.32,1.15c-0.66,0.16-1.12,0.72-1.69,1.01
						c-1.6,0.8-2.96,1.11-4.68,1.12c-2.47,0.01-4.75-0.32-5.81,2.39C360.75,190.78,362.2,191.17,362.55,190.28L362.55,190.28z"/>
				</g>
			</g>
			<g>
				<g>
					<path class="st3" d="M360.26,197.22c1.91-0.69,3.68-0.29,5.61-0.54c1.2-0.16,1.92-0.66,3.04-1.08
						c3.51-1.32,7.37-0.68,11.01-2.1c0.89-0.35,0.5-1.8-0.4-1.45c-2.42,0.94-4.26,1.24-6.93,1.16c-1.15-0.03-1.75-0.11-2.87,0.28
						c-1.98,0.69-3.4,1.59-5.64,1.74c-1.54,0.1-2.76,0.02-4.22,0.55C358.95,196.1,359.34,197.55,360.26,197.22L360.26,197.22z"/>
				</g>
			</g>
			<g>
				<g>
					<path class="st3" d="M360.23,204.4c3.85-0.84,7.6-0.59,11.45-1.05c2.94-0.35,5.43-2,8.36-2.4c0.95-0.13,0.55-1.58-0.4-1.45
						c-3.61,0.49-6.5,2.28-10.23,2.42c-3.28,0.12-6.36,0.32-9.57,1.02C358.89,203.16,359.29,204.61,360.23,204.4L360.23,204.4z"/>
				</g>
			</g>
			<g>
				<g>
					<path class="st3" d="M361.58,210.63c2.28-0.37,4.09-1.3,6.52-0.98c1.02,0.14,1.88,0.58,2.93,0.58c3.02,0,5.68-2.67,8.72-1.38
						c0.88,0.37,1.64-0.92,0.76-1.3c-3.03-1.29-4.87,0.42-7.83,0.92c-2.17,0.37-3.95-0.53-6.02-0.51c-1.86,0.02-3.64,0.91-5.47,1.21
						C360.23,209.33,360.64,210.78,361.58,210.63L361.58,210.63z"/>
				</g>
			</g>
			<g>
				<line class="st4" x1="393.96" y1="149.22" x2="413.41" y2="140.57"/>
				<line class="st4" x1="394.41" y1="156.22" x2="413.41" y2="148.97"/>
				<line class="st4" x1="394.86" y1="163.21" x2="413.41" y2="157.38"/>
				<line class="st4" x1="395.31" y1="170.2" x2="413.41" y2="165.79"/>
				<line class="st4" x1="395.75" y1="177.19" x2="413.41" y2="174.19"/>
			</g>
			<g>
				<polygon class="st5" points="402.11,185.27 402.11,193.92 412,193.92 412,183.15 				"/>
				<polygon class="st6" points="402.11,198.93 402.11,207.58 412,208.38 412,197.61 				"/>
				<polygon class="st7" points="402.11,212.51 402.11,221.16 412,222.75 412,211.98 				"/>
				<polygon class="st8" points="402.11,226.26 402.11,234.91 412,237.29 412,226.52 				"/>
			</g>
			<g>
				<polygon class="st9" points="405.65,82.84 405.65,136.18 454.71,115.44 454.71,50.91 				"/>
				<g>
					<path class="st3" d="M441.65,72.82l-27.67,18c4.56,1.19,11.43,2.96,12.65,3.17C427.9,92.7,435.97,81.11,441.65,72.82z"/>
					<path class="st3" d="M444.07,100.25l-1.29-27.31C427.69,95,427.11,95.01,426.76,95.01c-0.67,0-10.24-2.49-13.36-3.31v21.22
						L444.07,100.25z"/>
				</g>
				<g>
					<polygon class="st10" points="433.62,99.8 433.62,114.03 448,108.24 448,92.93 					"/>
					<g>
						<g>
							<path class="st3" d="M439.92,102.38c0.37-0.81,0.79-1.55,1.35-2.25c-0.42-0.11-0.84-0.22-1.25-0.33
								c0.4,2.29,0.47,4.57,0.27,6.88c-0.09,0.96,1.41,0.96,1.5,0c0.22-2.45,0.1-4.86-0.32-7.28c-0.09-0.53-0.91-0.76-1.25-0.33
								c-0.64,0.8-1.16,1.61-1.58,2.55C438.23,102.5,439.52,103.26,439.92,102.38L439.92,102.38z"/>
						</g>
					</g>
					<g>
						<g>
							<path class="st3" d="M439.76,108.35c1.15-0.32,2.29-0.63,3.44-0.95c0.93-0.26,0.53-1.71-0.4-1.45
								c-1.15,0.32-2.29,0.63-3.44,0.95C438.43,107.16,438.82,108.6,439.76,108.35L439.76,108.35z"/>
						</g>
					</g>
				</g>
			</g>
			<g>
				<rect x="282.19" y="100.25" class="st9" width="66.08" height="66.36"/>
				<g>
					<rect x="289.47" y="111.16" class="st3" width="23.89" height="38.06"/>
					<rect x="317.1" y="111.16" class="st3" width="23.89" height="38.06"/>
				</g>
				<g>
					<g>
						<path class="st11" d="M292.74,115.39c6.01,0,12.02,0,18.03,0c0.97,0,0.97-1.5,0-1.5c-6.01,0-12.02,0-18.03,0
							C291.77,113.89,291.77,115.39,292.74,115.39L292.74,115.39z"/>
					</g>
				</g>
				<g>
					<g>
						<path class="st11" d="M292.74,118.5c6.01,0,12.02,0,18.03,0c0.97,0,0.97-1.5,0-1.5c-6.01,0-12.02,0-18.03,0
							C291.77,117,291.77,118.5,292.74,118.5L292.74,118.5z"/>
					</g>
				</g>
				<g>
					<g>
						<path class="st11" d="M292.74,121.61c6.01,0,12.02,0,18.03,0c0.97,0,0.97-1.5,0-1.5c-6.01,0-12.02,0-18.03,0
							C291.77,120.11,291.77,121.61,292.74,121.61L292.74,121.61z"/>
					</g>
				</g>
				<g>
					<g>
						<path class="st11" d="M292.74,124.72c6.01,0,12.02,0,18.03,0c0.97,0,0.97-1.5,0-1.5c-6.01,0-12.02,0-18.03,0
							C291.77,123.22,291.77,124.72,292.74,124.72L292.74,124.72z"/>
					</g>
				</g>
				<g>
					<g>
						<path class="st11" d="M292.74,127.83c6.01,0,12.02,0,18.03,0c0.97,0,0.97-1.5,0-1.5c-6.01,0-12.02,0-18.03,0
							C291.77,126.33,291.77,127.83,292.74,127.83L292.74,127.83z"/>
					</g>
				</g>
				<g>
					<g>
						<path class="st11" d="M292.74,130.93c6.01,0,12.02,0,18.03,0c0.97,0,0.97-1.5,0-1.5c-6.01,0-12.02,0-18.03,0
							C291.77,129.43,291.77,130.93,292.74,130.93L292.74,130.93z"/>
					</g>
				</g>
				<g>
					<g>
						<path class="st11" d="M292.74,134.04c6.01,0,12.02,0,18.03,0c0.97,0,0.97-1.5,0-1.5c-6.01,0-12.02,0-18.03,0
							C291.77,132.54,291.77,134.04,292.74,134.04L292.74,134.04z"/>
					</g>
				</g>
				<g>
					<g>
						<path class="st11" d="M292.74,137.15c6.01,0,12.02,0,18.03,0c0.97,0,0.97-1.5,0-1.5c-6.01,0-12.02,0-18.03,0
							C291.77,135.65,291.77,137.15,292.74,137.15L292.74,137.15z"/>
					</g>
				</g>
				<g>
					<g>
						<path class="st11" d="M292.74,140.26c6.01,0,12.02,0,18.03,0c0.97,0,0.97-1.5,0-1.5c-6.01,0-12.02,0-18.03,0
							C291.77,138.76,291.77,140.26,292.74,140.26L292.74,140.26z"/>
					</g>
				</g>
				<g>
					<g>
						<path class="st11" d="M320.03,115.39c6.01,0,12.02,0,18.03,0c0.97,0,0.97-1.5,0-1.5c-6.01,0-12.02,0-18.03,0
							C319.06,113.89,319.06,115.39,320.03,115.39L320.03,115.39z"/>
					</g>
				</g>
				<g>
					<g>
						<path class="st11" d="M320.03,118.5c6.01,0,12.02,0,18.03,0c0.97,0,0.97-1.5,0-1.5c-6.01,0-12.02,0-18.03,0
							C319.06,117,319.06,118.5,320.03,118.5L320.03,118.5z"/>
					</g>
				</g>
				<g>
					<g>
						<path class="st11" d="M320.03,121.61c6.01,0,12.02,0,18.03,0c0.97,0,0.97-1.5,0-1.5c-6.01,0-12.02,0-18.03,0
							C319.06,120.11,319.06,121.61,320.03,121.61L320.03,121.61z"/>
					</g>
				</g>
				<g>
					<g>
						<path class="st11" d="M320.03,124.72c6.01,0,12.02,0,18.03,0c0.97,0,0.97-1.5,0-1.5c-6.01,0-12.02,0-18.03,0
							C319.06,123.22,319.06,124.72,320.03,124.72L320.03,124.72z"/>
					</g>
				</g>
				<g>
					<g>
						<path class="st11" d="M320.03,127.83c6.01,0,12.02,0,18.03,0c0.97,0,0.97-1.5,0-1.5c-6.01,0-12.02,0-18.03,0
							C319.06,126.33,319.06,127.83,320.03,127.83L320.03,127.83z"/>
					</g>
				</g>
				<g>
					<g>
						<path class="st11" d="M320.03,130.93c6.01,0,12.02,0,18.03,0c0.97,0,0.97-1.5,0-1.5c-6.01,0-12.02,0-18.03,0
							C319.06,129.43,319.06,130.93,320.03,130.93L320.03,130.93z"/>
					</g>
				</g>
				<g>
					<g>
						<path class="st11" d="M320.03,134.04c6.01,0,12.02,0,18.03,0c0.97,0,0.97-1.5,0-1.5c-6.01,0-12.02,0-18.03,0
							C319.06,132.54,319.06,134.04,320.03,134.04L320.03,134.04z"/>
					</g>
				</g>
				<g>
					<g>
						<path class="st11" d="M320.03,137.15c6.01,0,12.02,0,18.03,0c0.97,0,0.97-1.5,0-1.5c-6.01,0-12.02,0-18.03,0
							C319.06,135.65,319.06,137.15,320.03,137.15L320.03,137.15z"/>
					</g>
				</g>
				<g>
					<g>
						<path class="st11" d="M320.03,140.26c4.17,0,8.35,0,12.52,0c0.97,0,0.97-1.5,0-1.5c-4.17,0-8.35,0-12.52,0
							C319.06,138.76,319.06,140.26,320.03,140.26L320.03,140.26z"/>
					</g>
				</g>
				<g>
					<g>
						<path class="st11" d="M292.74,143.36c6.01,0,12.02,0,18.03,0c0.97,0,0.97-1.5,0-1.5c-6.01,0-12.02,0-18.03,0
							C291.77,141.86,291.77,143.36,292.74,143.36L292.74,143.36z"/>
					</g>
				</g>
			</g>
			<g>
				<g>
					<path class="st3" d="M289.89,154.63c15.79,0,31.58,0,47.36,0c0.97,0,0.97-1.5,0-1.5c-15.79,0-31.58,0-47.36,0
						C288.93,153.13,288.93,154.63,289.89,154.63L289.89,154.63z"/>
				</g>
			</g>
			<g>
				<g>
					<path class="st3" d="M289.89,157.81c7.86,0,15.73,0,23.59,0c0.97,0,0.97-1.5,0-1.5c-7.86,0-15.73,0-23.59,0
						C288.93,156.31,288.93,157.81,289.89,157.81L289.89,157.81z"/>
				</g>
			</g>
			<path class="st12" d="M324.77,103.48"/>
			<path class="st13" d="M315.23,100.25V66.72c0-3.87,3.14-7.01,7.01-7.01h99.5c3.87,0,7.01,3.14,7.01,7.01v1.09"/>
		</g>
		<g>
			<g>
				<polygon class="st9" points="70.06,201 70.06,349.93 133.39,320.14 133.39,237.34 				"/>
				<polygon class="st3" points="82.51,228.73 82.51,245.16 82.51,262.13 82.51,279.13 82.51,296.15 82.51,305.25 124.92,296.94 
					124.92,289.23 124.92,277.56 124.92,265.93 124.92,254.32 124.92,245.96 				"/>
				<polygon class="st14" points="124.92,265.93 82.51,262.13 82.51,279.13 124.92,277.56 				"/>
				<g>
					<polygon class="st15" points="124.92,254.32 82.51,245.16 82.51,262.13 124.92,265.93 					"/>
					<polygon class="st15" points="124.92,245.96 82.51,228.73 82.51,245.16 124.92,254.32 					"/>
					<polygon class="st11" points="124.92,245.96 82.51,228.73 82.51,245.16 124.92,254.32 					"/>
					<polygon class="st15" points="124.92,265.93 82.51,262.13 82.51,279.13 124.92,277.56 					"/>
					<polygon class="st15" points="82.51,296.15 82.51,305.25 124.92,296.94 124.92,289.23 					"/>
					<polygon class="st15" points="124.92,277.56 82.51,279.13 82.51,296.15 124.92,289.23 					"/>
					<g>
						<path class="st15" d="M93.74,245.16c-0.31,0.8,0,57.89,0,57.89"/>
						<path class="st15" d="M105.62,246.18c-0.31,0.8,0.07,54.39,0.07,54.39"/>
						<path class="st15" d="M117.5,247.2c-0.31,0.8,0.14,50.89,0.14,50.89"/>
					</g>
				</g>
				<path class="st16" d="M172.96,315.26c0,0-36.98-27.86-38.66-29.54s-19.19-23.36-20.39-22.64s-2.75,2.41-2.75,2.41
					s-2.07,1.5-2.31,2.94c-0.24,1.44,11.25,16.94,10.57,23.29c-0.53,4.94-11.53,14.41-10.57,16.81c0.96,2.4,3.73,3.01,4.94,2.25
					c1.21-0.76,4.08-4.84,5.74-5.59s9.22-0.45,13.45-3.17c1.96-0.76,33.59,39.9,40.74,39.9c3.81,0,17.56-10.57,27.84-18.93
					c-5.1-6.75-10.2-13.49-15.31-20.24C179.33,309.7,173.84,315.16,172.96,315.26z"/>
				<line class="st17" x1="123.34" y1="278.37" x2="111.79" y2="264.84"/>
				<g>
					<line class="st18" x1="82.51" y1="315.59" x2="103.71" y2="309.61"/>
					<line class="st18" x1="82.51" y1="321.87" x2="103.71" y2="314.92"/>
					<line class="st18" x1="82.51" y1="328.15" x2="103.71" y2="320.24"/>
					<line class="st18" x1="82.51" y1="334.43" x2="103.71" y2="325.55"/>
				</g>
			</g>
			<polygon class="st0" points="151.85,175.15 157.92,198.36 186.24,188.61 182.6,165.8 			"/>
			<circle class="st12" cx="82.51" cy="132.15" r="5.39"/>
			<line class="st12" x1="82.51" y1="137.54" x2="82.51" y2="208.21"/>
			<g>
				<polygon class="st0" points="91.09,84.9 117.56,170.51 210.79,147.64 210.79,64.96 				"/>
				<polyline class="st11" points="173.93,146.84 167.66,121.85 175.08,120.86 180.91,145.33 				"/>
				<line class="st12" x1="87.63" y1="130.49" x2="103.36" y2="124.58"/>
				<polyline class="st10" points="132.47,155.79 119.72,112.93 127.48,111.16 139.54,153.88 				"/>
				<polyline class="st5" points="160.59,149.08 149.23,106.22 156.99,104.45 167.66,147.17 				"/>
				<polyline class="st8" points="146.52,152.09 133.39,101.13 141.14,99.36 153.59,150.18 				"/>
				<g>
					<line class="st18" x1="177.8" y1="81.44" x2="203.11" y2="76.24"/>
					<line class="st18" x1="178.31" y1="85.71" x2="203.11" y2="80.62"/>
					<line class="st18" x1="178.83" y1="89.98" x2="203.11" y2="84.99"/>
					<line class="st18" x1="179.35" y1="94.25" x2="203.11" y2="89.37"/>
					<line class="st18" x1="179.87" y1="98.52" x2="203.11" y2="93.74"/>
					<line class="st18" x1="180.39" y1="102.79" x2="203.11" y2="98.12"/>
					<line class="st18" x1="180.91" y1="107.05" x2="203.11" y2="102.49"/>
				</g>
				<g>
					<g>
						<path class="st11" d="M187.4,124.25c0-0.08,0-0.16,0-0.25c0-0.97-1.5-0.97-1.5,0c0,0.08,0,0.16,0,0.25
							C185.9,125.21,187.4,125.22,187.4,124.25L187.4,124.25z"/>
					</g>
				</g>
				<g>
					<g>
						<path class="st5" d="M187.64,131.17c0.97,0,0.97-1.5,0-1.5C186.68,129.67,186.67,131.17,187.64,131.17L187.64,131.17z"/>
					</g>
				</g>
				<g>
					<g>
						<path class="st8" d="M188.88,137.59c0.97,0,0.97-1.5,0-1.5C187.91,136.09,187.91,137.59,188.88,137.59L188.88,137.59z"/>
					</g>
				</g>
				<g>
					<g>
						<path class="st10" d="M189.86,143.27c0.97,0,0.97-1.5,0-1.5C188.9,141.77,188.9,143.27,189.86,143.27L189.86,143.27z"/>
					</g>
				</g>
				<g>
					<g>
						<path class="st3" d="M190.19,123.94c3.11,1.99,5.93-0.89,5.57-4.11c-0.32,0.24-0.63,0.48-0.95,0.72
							c1.18,0.16,1.74,2.19,3.16,2.52c2.34,0.55,4.3-1.65,6.67-0.91c0.92,0.29,1.32-1.16,0.4-1.45c-2.19-0.68-3.57,0.74-5.68,0.83
							c-2.2,0.09-2.27-2.19-4.14-2.44c-0.42-0.06-1.01,0.18-0.95,0.72c0.42,1.68-0.69,2.62-3.31,2.82
							C190.13,122.13,189.38,123.42,190.19,123.94L190.19,123.94z"/>
					</g>
				</g>
				<g>
					<g>
						<path class="st3" d="M191.58,130.61c2.01-0.23,3.94-0.67,5.84-1.39c2.32-0.87,4.67-2.36,7.21-1.38c0.9,0.35,1.29-1.1,0.4-1.45
							c-1.94-0.75-3.68-0.34-5.58,0.4c-2.61,1.02-5.06,2-7.88,2.32C190.63,129.22,190.62,130.72,191.58,130.61L191.58,130.61z"/>
					</g>
				</g>
				<g>
					<g>
						<path class="st3" d="M192.84,136.92c1.35-0.8,2.42-0.42,3.84-0.42c0.64,0,0.96,0.03,1.53-0.34c0.73-0.47,1.04-1.21,1.82-1.65
							c1.37-0.78,2.88-0.52,4.38-0.24c0.94,0.18,1.35-1.27,0.4-1.45c-1.97-0.37-4.29-0.72-6.01,0.58c-0.44,0.34-0.74,1.02-1.19,1.29
							c-0.65,0.38-1.62,0.01-2.29,0.03c-1.22,0.03-2.18,0.28-3.25,0.9C191.26,136.11,192.01,137.41,192.84,136.92L192.84,136.92z"/>
					</g>
				</g>
				<g>
					<g>
						<path class="st3" d="M193.05,142.48c2.17,0.1,3.13-1.56,4.97-2.29c1.13-0.45,1.6,0.47,2.62,0.56c0.86,0.08,1.69-0.4,2.39-0.83
							c0.81-0.51,0.06-1.81-0.76-1.3c-1.15,0.72-1.86-0.06-2.85-0.34c-0.48-0.14-1.05,0.09-1.49,0.27c-1.68,0.7-2.94,2.52-4.89,2.43
							C192.08,140.94,192.09,142.44,193.05,142.48L193.05,142.48z"/>
					</g>
				</g>
				<polyline class="st18" points="115.28,118.97 130.85,132.15 141.71,115.85 160.97,133.85 174.29,128.28 				"/>
				<polyline class="st19" points="108.78,97.07 126.58,157.06 182.93,144.9 				"/>
			</g>
			<polyline class="st12" points="162.27,157.06 167.66,184.66 130.91,196.5 			"/>
			<circle class="st12" cx="124.92" cy="198.95" r="6.17"/>
		</g>
		<g>
			<path class="st11" d="M291.35,196.36c-4.23-7.52-11.98-10.34-14.57-15.27c-2.58-4.93-1.64-16.92-14.33-19.74
				s-15.27,4.93-18.33,4.7c-3.05-0.23-13.86-2.82-18.8,0.7c-4.93,3.52-5.87,6.11-8.69,7.52s-7.75,0.58-11.98,5.11
				c-4.23,4.53-8.93,16.27-8.46,20.03s2.52,12.45-0.03,16.45c-2.55,3.99-7.96,9.4-7.49,14.57c0.47,5.17,1.82,12.69-0.03,15.74
				c-1.85,3.05-10.78,7.99-9.13,11.51c1.64,3.52,12.34,8.53,19.97,5.38c3.01-1.24,10.01-5.42,14.55,0
				c2.92,3.48,13.69,4.76,18.58-1.39c1.63-2.06,5.78,0.43,8.28,0.88s11.45,0.92,11.45,0.92l8.46-16.84l26.08-31.72
				C286.89,214.92,295.58,203.88,291.35,196.36z"/>
			<g>
				<path class="st11" d="M278.95,186.22c2.38,4.54,9.12,7.3,13.48,13.56c-0.14-1.18-0.47-2.34-1.08-3.42
					c-3.83-6.81-10.55-9.77-13.7-13.94C278.03,183.89,278.42,185.21,278.95,186.22z"/>
				<path class="st11" d="M190.81,251.3c1.85-3.05,0.5-10.57,0.03-15.74c-0.47-5.17,4.93-10.57,7.49-14.57
					c2.55-3.99,0.5-12.69,0.03-16.45s4.23-15.51,8.46-20.03c4.23-4.53,9.16-3.7,11.98-5.11s3.76-3.99,8.69-7.52
					c4.93-3.52,15.74-0.94,18.8-0.7c3.05,0.23,5.64-7.52,18.33-4.7c5.08,1.13,7.98,3.73,9.79,6.76
					c-1.48-4.91-4.12-10.15-11.95-11.89c-12.69-2.82-15.27,4.93-18.33,4.7c-3.05-0.23-13.86-2.82-18.8,0.7
					c-4.93,3.52-5.87,6.11-8.69,7.52s-7.75,0.58-11.98,5.11c-4.23,4.53-8.93,16.27-8.46,20.03s2.52,12.45-0.03,16.45
					c-2.55,3.99-7.96,9.4-7.49,14.57c0.47,5.17,1.82,12.69-0.03,15.74c-1.85,3.05-10.78,7.99-9.13,11.51
					c0.38,0.82,1.26,1.71,2.47,2.57C183.7,257.16,189.38,253.67,190.81,251.3z"/>
			</g>
			<g>
				<defs>
					<path id="SVGID_1_" d="M291.35,196.36c-4.23-7.52-11.98-10.34-14.57-15.27c-2.58-4.93-1.64-16.92-14.33-19.74
						s-15.27,4.93-18.33,4.7c-3.05-0.23-13.86-2.82-18.8,0.7c-4.93,3.52-5.87,6.11-8.69,7.52s-7.75,0.58-11.98,5.11
						c-4.23,4.53-8.93,16.27-8.46,20.03s2.52,12.45-0.03,16.45c-2.55,3.99-7.96,9.4-7.49,14.57c0.47,5.17,1.82,12.69-0.03,15.74
						c-1.85,3.05-10.78,7.99-9.13,11.51c1.64,3.52,12.34,8.53,19.97,5.38c3.01-1.24,10.01-5.42,14.55,0
						c2.92,3.48,13.69,4.76,18.58-1.39c1.63-2.06,5.78,0.43,8.28,0.88s11.45,0.92,11.45,0.92l8.46-16.84l26.08-31.72
						C286.89,214.92,295.58,203.88,291.35,196.36z"/>
				</defs>
				<clipPath id="SVGID_2_">
					<use xlink:href="#SVGID_1_"  style="overflow:visible;"/>
				</clipPath>
				<g class="st20">
					<path class="st11" d="M208.65,205.73c1.56-3.05,4.19-5.38,4.64-8.94c0.52-4.18-1.3-8.41-1.19-12.62
						c0.13-5.23,1.89-10.14,4.78-14.46c0.54-0.8-0.76-1.56-1.3-0.76c-4.73,7.06-5.57,14.63-4.16,22.83c0.62,3.6,0.37,6.46-1.68,9.56
						c-1.02,1.54-2.15,2.98-2.88,4.7c-1.55,3.67-1.48,7.72-1.75,11.62c-0.38,5.44-2.12,9.26-5.54,13.43
						c-1.98,2.41-4.13,4.83-5.21,7.8c-1.53,4.21-0.16,8.7-1.54,13c-1.31,4.09-3.34,7.79-3.25,12.2c0.02,0.96,1.52,0.97,1.5,0
						c-0.11-4.9,2.62-8.89,3.69-13.52c0.97-4.16-0.43-8.47,1.55-12.43c1.67-3.35,4.52-5.93,6.66-8.96c1.96-2.78,3-5.71,3.42-9.09
						C206.97,215.31,206.39,210.16,208.65,205.73z"/>
					<path class="st11" d="M226.66,175.8c-0.41-5.67,1.45-11.02,5.11-15.35c0.62-0.73-0.44-1.8-1.06-1.06
						c-5.53,6.56-6.18,13.86-4.71,22.04c0.96,5.31,1.21,9.95-0.53,15.12c-1.38,4.1-3.39,7.96-4.72,12.08
						c-1.26,3.93-1.39,7.7-1.4,11.79c-0.02,5.54-1.19,10.56-3.84,15.44c-2.07,3.81-5.02,7.13-6.38,11.3
						c-1.52,4.65-1.37,9.66-2.84,14.34c-0.29,0.92,1.16,1.32,1.45,0.4c1.41-4.48,1.33-9.22,2.66-13.71c1.4-4.71,4.83-8.36,7-12.7
						c1.57-3.12,2.72-6.47,3.2-9.94c0.65-4.76-0.19-9.57,0.97-14.29c1.82-7.45,6.61-14.06,6.87-21.9
						C228.57,184.77,226.98,180.36,226.66,175.8z"/>
					<path class="st11" d="M234.59,200.03c2.04-3.65,3.45-7.49,3.86-11.67c0.95-9.62-2.54-22.89,7.27-29.13
						c0.81-0.52,0.06-1.81-0.76-1.3c-7.25,4.6-8.01,13.49-7.88,21.31c0.11,6.67-0.03,12.81-3.17,18.87
						c-2.19,4.24-5.48,7.92-6.03,12.82c-0.55,4.81,1.2,9.47,1.54,14.23c0.41,5.85-2.32,10.41-4.66,15.54
						c-4.58,10.03-0.95,20.14-2.26,30.61c-0.12,0.96,1.38,0.95,1.5,0c0.66-5.27-0.08-10.45-0.34-15.72
						c-0.29-5.7,0.67-10.61,3.17-15.75c1.69-3.48,3.56-6.94,4.04-10.84c0.58-4.77-1.07-9.38-1.48-14.09
						C228.87,208.91,231.83,204.97,234.59,200.03z"/>
					<path class="st11" d="M262.16,157.86c-7.41,4.71-11.04,12.78-12.29,21.24c-0.78,5.26-0.35,10.55-0.91,15.81
						c-0.62,5.82-4.23,9.63-6.28,14.84c-1.51,3.82-1.01,7.59-0.44,11.54c0.47,3.2,0.83,6.27,0.01,9.45
						c-0.57,2.24-1.66,4.33-2.55,6.44c-1.71,4.07-2.4,7.72-1.64,12.09c1.01,5.8,4.62,15.8-3.54,18.22c-0.92,0.27-0.53,1.72,0.4,1.45
						c9.15-2.71,5.75-13.38,4.59-20.07c-1.07-6.17,1.67-10.53,3.66-16.1c1.59-4.46,0.97-8.58,0.33-13.15
						c-0.49-3.53-0.57-6.84,0.93-10.15c0.95-2.08,2.3-3.96,3.39-5.97c2.41-4.43,2.77-8.93,2.87-13.89
						c0.21-11.3,1.86-23.86,12.24-30.46C263.73,158.63,262.98,157.34,262.16,157.86z"/>
					<path class="st11" d="M292.87,210.68c-1.92-1.07-3.93-2.16-5.47-3.76c-2.09-2.17-2.24-4.62-3.07-7.33
						c-1.15-3.77-3.88-6.64-6.06-9.82c-3.62-5.3-3.95-15.59-12.12-16.03c-0.03,0-0.04,0.01-0.07,0.01c0.76-1.52,1.7-2.89,2.36-3.71
						c1.86-2.31,4.18-4.17,6.49-6.02c0.75-0.6-0.31-1.66-1.06-1.06c-3.52,2.82-7.18,5.82-9.06,10.04c-1.04,2.34-2.21,6.36-0.3,8.54
						c0.64,0.73,1.69-0.34,1.06-1.06c-1.2-1.37-0.85-3.53,0-5.6c0.12,0.19,0.31,0.34,0.59,0.35c5.86,0.32,6.77,6.95,8.57,11.23
						c1.52,3.61,4.22,6.38,6.29,9.65c2.01,3.17,1.92,7.05,3.91,10.14c1.69,2.63,4.52,4.24,7.18,5.73
						C292.95,212.45,293.71,211.15,292.87,210.68z"/>
				</g>
			</g>
			<g>
				<g>
					<path class="st8" d="M293.55,209.33c-1.96-1.71-6.57,1.27-8.96,0.29c0.49,1.64,1.41,3.17,2.58,4.44
						c1.67,1.8,3.8,3.13,6.02,4.18c0.19,0.09,0.38,0.17,0.56,0.26c-0.11-0.79-0.19-1.24-0.19-1.24S295.53,211.07,293.55,209.33z"/>
					<path class="st16" d="M287.16,214.05c-1.17-1.27-2.09-2.79-2.58-4.44c-0.03-0.01-0.07-0.02-0.11-0.04
						c-2.36-1.12-8.82-25.85-21-30.2c0,0,1.74,9.32-0.99,13.92c-2.73,4.6-9.69,10.56-9.94,14.41c0,0,3.36,3.73,4.85,9.44
						s-0.12,8.7,1.99,13.42c2.11,4.72,4.35,4.35,4.22,5.47c-0.12,1.12-7.95,0.87-14.41-6.21c-6.46-7.08-14.54-0.92-10.88,8.95
						s14.73,6.46,14.73,6.46s0.27,14.2-3.04,16.97c-1.97,1.65-5.72,1.03-9.11,0.35l-0.46,5.87c0,0-1.74-0.12-4.45,0.05
						c2.26,6.98,7.02,21.6,17.45,20.56c12.08-1.2,14.26-15.52,15.76-22.22c-2.57-0.36-5.18-0.43-7.71,0.01
						c0,0-1.08-16.15,2.69-16.83s15.63,1.74,24.79-1.76c7.99-3.06,5.52-24.37,4.77-29.75c-0.19-0.08-0.38-0.17-0.56-0.26
						C290.96,217.18,288.83,215.85,287.16,214.05z"/>
				</g>
				<path class="st16" d="M367.63,198.55c-1.01-0.38-3.54-1.14-4.29-0.51c-0.76,0.63-5.81,11.62-5.81,11.62l-0.63-2.02
					c0,0,0.88-7.45,1.26-8.59c0.38-1.14,4.04-6.57,4.04-6.57s4.55-3.91,4.55-4.55c0-0.63-1.77-3.28-1.77-3.28s-6.82,4.42-8.34,6.06
					c-1.52,1.64-8.71,8.71-9.09,11.74c-0.38,3.03,0.17,19.36-0.91,22.87c-1.08,3.5-19.94,43.92-22.36,45.27
					c-1.69,0.94-16.8,0.59-27.02,0.1c3.44,8.54,6.85,17.31,9.09,26.24c12.68-2.53,32.12-6.72,34.26-8.27
					c3.15-2.29,16.32-60.4,16.89-61.26s6.51-5.44,8.24-7.64c2.27-2.9,0-10.1,0-11.49C365.73,206.89,368.64,198.93,367.63,198.55z"/>
			</g>
			<g>
				<g>
					<path class="st11" d="M237.42,236.51c0.15-4.7,6.75-4.02,9.44-2.65c2.34,1.2,4.02,3.23,5.42,5.38c0.53,0.81,1.82,0.05,1.3-0.76
						c-2.35-3.61-5.69-6.85-10.23-7.17c-3.38-0.23-7.31,1.39-7.43,5.19C235.89,237.47,237.39,237.47,237.42,236.51L237.42,236.51z"
						/>
				</g>
			</g>
			<g>
				<g>
					<path class="st11" d="M248.83,233.84c-2.57,1.19-2.48,4.19-2.09,6.56c0.16,0.95,1.6,0.55,1.45-0.4
						c-0.28-1.74-0.5-3.99,1.4-4.87C250.46,234.73,249.7,233.43,248.83,233.84L248.83,233.84z"/>
				</g>
			</g>
			
				<ellipse transform="matrix(0.9218 -0.3876 0.3876 0.9218 -59.1722 122.9955)" class="st11" cx="275.38" cy="208.21" rx="1.99" ry="5.12"/>
			
				<ellipse transform="matrix(0.9391 -0.3436 0.3436 0.9391 -60.842 105.5628)" class="st21" cx="267.41" cy="224.44" rx="5.82" ry="4.04"/>
			<path class="st8" d="M288.19,270.09c-2.68-0.42-16.04-4.54-26.69-3.26c5.57,12.05,2.29,18.43-7.01,20.85
				c-10.15,2.64-16.23-12.22-18.49-19.2c-5.03,0.31-13.42,1.6-20.28,6.43c-6.27,4.42-19.38,17.71-29.47,27.84
				c5.1,6.75,11.33,15.04,16.43,21.79c6.72-5.46,12.38-9,12.38-9s10.48,16.07,9.04,26.37c-1.43,10.31-6.87,31.77-6.87,31.77h75.29
				l-5.44-48.95c0,0,11.87-5.31,6.01-21c0,0,8.32-1.8,13.8-4.73c-2.24-8.93-6.19-19.77-9.63-28.31
				C292.79,270.5,289.25,270.26,288.19,270.09z"/>
			<g>
				<defs>
					<path id="SVGID_3_" d="M287.16,214.05c-1.17-1.27-2.09-2.79-2.58-4.44c-0.03-0.01-0.07-0.02-0.11-0.04
						c-2.36-1.12-8.82-25.85-21-30.2c0,0,1.74,9.32-0.99,13.92c-2.73,4.6-9.69,10.56-9.94,14.41c0,0,3.36,3.73,4.85,9.44
						s-0.12,8.7,1.99,13.42c2.11,4.72,4.35,4.35,4.22,5.47c-0.12,1.12-7.95,0.87-14.41-6.21c-6.46-7.08-14.54-0.92-10.88,8.95
						s14.73,6.46,14.73,6.46s0.27,14.2-3.04,16.97c-1.97,1.65-5.72,1.03-9.11,0.35l-0.46,5.87c0,0-1.74-0.12-4.45,0.05
						c2.26,6.98,8.34,21.84,18.49,19.2c9.31-2.42,13.22-14.16,14.72-20.86c-2.57-0.36-5.18-0.43-7.71,0.01
						c0,0-1.08-16.15,2.69-16.83s15.63,1.74,24.79-1.76c7.99-3.06,5.52-24.37,4.77-29.75c-0.19-0.08-0.38-0.17-0.56-0.26
						C290.96,217.18,288.83,215.85,287.16,214.05z"/>
				</defs>
				<clipPath id="SVGID_4_">
					<use xlink:href="#SVGID_3_"  style="overflow:visible;"/>
				</clipPath>
				<g class="st22">
					<g>
						<path class="st11" d="M282.81,229.01c5,2.22,10.24,2.8,15.6,1.7c0.94-0.19,0.55-1.64-0.4-1.45c-4.93,1.01-9.84,0.5-14.44-1.55
							C282.69,227.32,281.93,228.62,282.81,229.01L282.81,229.01z"/>
					</g>
				</g>
			</g>
			<g>
				<g>
					<path class="st11" d="M265.2,198.36c0.33-2.6,1.76-6.35,4.89-6.26c0.97,0.03,0.96-1.47,0-1.5c-4.06-0.12-5.96,4.35-6.39,7.76
						C263.57,199.32,265.08,199.31,265.2,198.36L265.2,198.36z"/>
				</g>
			</g>
			<path class="st1" d="M339.89,289.04l-34.64,3.86l-0.84-2.47l-19,1.71l7.68,11.6c0,0,8.32-1.8,13.8-4.73
				c-0.17-0.67-0.37-1.38-0.55-2.07c0,0,0.01,0,0.01,0C318.12,294.59,335.74,290.81,339.89,289.04z"/>
			<path class="st1" d="M224.09,341.92c-0.02,0.11-0.03,0.23-0.05,0.34c16.48-12.12,3.85-33.42,3.85-33.42l-12.85,6.71
				C215.05,315.55,225.52,331.61,224.09,341.92z"/>
			<g>
				<g>
					<path class="st1" d="M265.95,328.11c1.47-1.62,3.17-2.92,5.12-3.91c0.86-0.44,0.1-1.73-0.76-1.3
						c-2.05,1.04-3.88,2.44-5.42,4.15C264.24,327.76,265.3,328.83,265.95,328.11L265.95,328.11z"/>
				</g>
			</g>
			<g>
				<g>
					<path class="st1" d="M270.95,327.94c0.54-0.61,1.14-1.12,1.83-1.56c0.82-0.51,0.06-1.81-0.76-1.3
						c-0.79,0.5-1.51,1.09-2.13,1.79C269.25,327.6,270.31,328.66,270.95,327.94L270.95,327.94z"/>
				</g>
			</g>
		</g>
		<path class="st14" d="M147.61,368.52h216.96c7.33,0,14.39,2.68,19.89,7.52c16.44,14.5,48.73,45.76,33.65,55.39
			c-19.87,12.69-92.72-13.25-128.04,0s-160.6,40.29-196.47,0c-30.71-34.48,27.54-56.03,44.96-61.52
			C141.49,368.99,144.53,368.52,147.61,368.52z"/>
		<polygon class="st23" points="143.57,377.53 181.48,383.3 149.09,423.63 91.09,412.67 		"/>
		<polygon class="st3" points="169.66,376.37 121.7,413.12 192.92,427.52 220.41,380.87 		"/>
		<g>
			<g>
				<path class="st11" d="M355.17,373.47c-1.39-0.87-44.82,5.62-44.82,5.62l-55.61,3.39c0,0-4.24-0.31-4.74,0.92
					c-0.5,1.23,11.21,39.78,11.98,40.22c0.77,0.45,49.6-5.25,49.6-5.25s5.24,1.69,11.09-0.77c0,0,57.29-1.13,57.76-1.75
					C380.89,415.24,356.56,374.34,355.17,373.47z"/>
				<path class="st3" d="M305.03,401.6c6.8-0.68,10.87,7.82,10.87,7.82s2.04-7.31,16.14-11.21c14.1-3.91,40.98,9.44,40.98,9.44l0,0
					l-19.84-33.72c0,0-10.91-10.21-25.52-7.66s-20.78,9.18-20.78,9.18s-18.84-20.73-50.44,0.93l11.62,35.59
					C268.06,411.96,282.94,403.47,305.03,401.6z"/>
				<path class="st0" d="M317.6,416.21c2.55-0.34,58.33-3.74,58.33-3.74l-2.91-4.83l0,0c0,0-26.88-13.35-40.98-9.44
					c-14.1,3.91-16.14,11.21-16.14,11.21s-4.08-8.49-10.87-7.82c-22.09,1.87-36.97,10.36-36.97,10.36l-11.62-35.59l-4.3,7.84
					l10.93,36.76C263.07,420.97,315.05,416.55,317.6,416.21z"/>
				<polygon class="st24" points="256.44,376.37 252.14,384.21 263.07,420.97 268.06,411.96 				"/>
			</g>
			<path class="st24" d="M324.76,400.97L324.76,400.97c0.01-0.01-11.21-9.5-15.62-27.35c-1.47,1.09-2.26,1.82-2.26,1.82l9.02,33.98
				C315.9,409.41,317.19,404.82,324.76,400.97z"/>
			<g>
				<path class="st25" d="M270.42,404.77c0,0,22.74-12.43,41.13-4.77"/>
				<path class="st25" d="M268.9,400.2c0,0,22.38-12.97,41.59-4.14"/>
				<path class="st25" d="M267.39,395.62c0,0,22.02-13.52,42.05-3.5"/>
				<path class="st25" d="M265.87,391.05c0,0,21.66-14.06,42.51-2.87"/>
				<path class="st25" d="M264.36,386.48c0,0,21.3-14.6,42.97-2.23"/>
				<path class="st25" d="M262.84,381.9c0,0,20.94-15.15,43.43-1.59"/>
				<path class="st25" d="M261.33,377.33c0,0,20.58-15.69,43.9-0.96"/>
			</g>
			<g>
				<path class="st25" d="M317.98,401.14c0,0,15.62-19.23,47.74,0"/>
				<path class="st25" d="M316.63,397.28c0,0,15.5-18.71,46.89-0.27"/>
				<path class="st25" d="M315.27,393.42c0,0,15.39-18.19,46.05-0.53"/>
				<path class="st25" d="M313.91,389.55c0,0,15.28-17.67,45.21-0.8"/>
				<path class="st25" d="M312.55,385.69c0,0,15.16-17.15,44.37-1.07"/>
				<path class="st25" d="M311.2,381.83c0,0,15.05-16.63,43.52-1.33"/>
				<path class="st25" d="M309.84,377.97c0,0,14.93-16.11,42.68-1.6"/>
			</g>
		</g>
		<g>
			<polygon class="st0" points="317.98,308.84 332.54,362.57 405.65,341.92 405.65,285.28 			"/>
			<g>
				<g>
					<line class="st26" x1="424.72" y1="272.77" x2="423.28" y2="273.17"/>
					<line class="st27" x1="420.91" y1="273.82" x2="412.61" y2="276.12"/>
					<line class="st28" x1="411.42" y1="276.45" x2="398.38" y2="280.06"/>
					<polyline class="st26" points="397.2,280.39 395.75,280.79 395.75,282.29 					"/>
					<line class="st29" x1="395.75" y1="284.47" x2="395.75" y2="292.1"/>
					<line class="st26" x1="395.75" y1="293.19" x2="395.75" y2="294.69"/>
				</g>
			</g>
			<g>
				<path class="st2" d="M368.69,311.9c-1.9,1.91-3.33,4.29-4.12,6.95l15.86,4.7L368.69,311.9z"/>
				<path class="st30" d="M380.44,307.01c-0.19,0-0.37,0.02-0.55,0.03l0.55,16.51l-7.94,14.51c2.36,1.29,5.06,2.03,7.94,2.03
					c9.14,0,16.55-7.4,16.55-16.54S389.58,307.01,380.44,307.01z"/>
				<path class="st8" d="M364.57,318.85c-0.44,1.49-0.69,3.07-0.69,4.7c0,6.26,3.48,11.7,8.61,14.51l7.94-14.51L364.57,318.85z"/>
			</g>
			<g>
				<line class="st18" x1="356.13" y1="320.14" x2="331.18" y2="325.74"/>
				<line class="st18" x1="358.02" y1="327.96" x2="333.29" y2="334.02"/>
				<line class="st18" x1="359.92" y1="335.77" x2="335.39" y2="342.3"/>
				<line class="st18" x1="361.82" y1="343.59" x2="337.5" y2="350.58"/>
			</g>
			<circle class="st31" cx="439.27" cy="270.73" r="14.55"/>
			<polyline class="st32" points="432.97,270.92 438.72,275.73 457.56,256.23 			"/>
		</g>
	</g>
</g>
</svg>
