<?xml version="1.0" encoding="utf-8"?>
<!-- Generator: Adobe Illustrator 23.0.5, SVG Export Plug-In . SVG Version: 6.00 Build 0)  -->
<svg version="1.1" id="Layer_1" xmlns="http://www.w3.org/2000/svg" xmlns:xlink="http://www.w3.org/1999/xlink" x="0px" y="0px"
	 viewBox="0 0 3500 2000" style="enable-background:new 0 0 3500 2000;" xml:space="preserve">
<style type="text/css">
	.st0{fill:#FCF2BC;}
	.st1{fill:#F4F4F4;}
	.st2{display:none;fill:#102A54;}
	.st3{fill:#F4F7FD;}
	.st4{fill:#CCE6FF;}
	.st5{fill:#E6515C;}
	.st6{fill:#3C94F8;}
	.st7{fill:#102A54;}
	.st8{fill:#80C0FF;}
	.st9{fill:#FFFFFF;}
	.st10{fill:#FFC0B1;}
	.st11{fill:#141212;}
	.st12{fill:#2B2B2B;}
	.st13{opacity:0.81;fill:#141212;}
</style>
<path class="st0" d="M3314.57,2000H185.43C83.02,2000,0,1916.98,0,1814.57V185.43C0,83.02,83.02,0,185.43,0h3129.13
	C3416.98,0,3500,83.02,3500,185.43v1629.13C3500,1916.98,3416.98,2000,3314.57,2000z"/>
<g>
	<path class="st1" d="M276.76,1824.16c0,0,2948.08,0,2959.1,0c14.77-0.23-74.64-452.03-85.26-489.21
		c-56.32-197.28-138.35-389.09-260.28-555.1c-391.99-533.71-1196.44-629.44-1625.38-81.22
		c-141.04,180.26-282.61,384.44-501.07,476.04c-165.45,69.38-348.67,81.68-469.22,230.75
		C204.93,1516.37,189.32,1711.39,276.76,1824.16z"/>
	<path class="st2" d="M3288.29,1833.13H211.71c-1.62,0-2.93-1.31-2.93-2.93s1.31-2.93,2.93-2.93h3076.58c1.62,0,2.93,1.31,2.93,2.93
		S3289.91,1833.13,3288.29,1833.13z"/>
	<g>
		<path class="st3" d="M3164.67,1604.16H1675.58c-23.66,0-43.02-19.36-43.02-43.02V572.72c0-23.66,19.36-43.02,43.02-43.02h1489.09
			c23.66,0,43.02,19.36,43.02,43.02v988.42C3207.69,1584.8,3188.33,1604.16,3164.67,1604.16z"/>
		<g>
			<rect x="1726.92" y="919.69" class="st4" width="160.44" height="518.57"/>
			<rect x="1963.12" y="1010.91" class="st4" width="160.44" height="427.36"/>
			<rect x="2199.31" y="861.82" class="st4" width="160.44" height="576.44"/>
			<rect x="2435.51" y="762.21" class="st5" width="160.44" height="676.05"/>
			<rect x="2671.71" y="1193.62" class="st4" width="160.44" height="244.64"/>
			<rect x="2907.91" y="594.91" class="st6" width="160.44" height="843.35"/>
		</g>
		<path class="st7" d="M3156.69,1584.58H1658.28c-22.02,0-39.93-17.91-39.93-39.93V546.91c0-22.02,17.91-39.93,39.93-39.93h1498.41
			c22.02,0,39.93,17.91,39.93,39.93v997.74C3196.62,1566.67,3178.7,1584.58,3156.69,1584.58z M1658.28,510.13
			c-20.28,0-36.79,16.5-36.79,36.79v997.74c0,20.28,16.5,36.79,36.79,36.79h1498.41c20.28,0,36.79-16.5,36.79-36.79V546.91
			c0-20.28-16.5-36.79-36.79-36.79H1658.28z"/>
	</g>
	<g>
		<path class="st7" d="M815.12,1050.88H442.1c-13.92,0-25.25-11.33-25.25-25.25V703.95c0-13.92,11.33-25.25,25.25-25.25h373.02
			c13.92,0,25.25,11.33,25.25,25.25v321.69C840.36,1039.56,829.04,1050.88,815.12,1050.88z M442.1,681.84
			c-12.19,0-22.11,9.92-22.11,22.11v321.69c0,12.19,9.92,22.11,22.11,22.11h373.02c12.19,0,22.11-9.92,22.11-22.11V703.95
			c0-12.19-9.92-22.11-22.11-22.11H442.1z"/>
		<path class="st7" d="M456.7,943.75c-0.4,0-0.8-0.15-1.11-0.46c-0.61-0.61-0.62-1.61,0-2.22l51.27-51.4l48.6,25.27l75.25-82.33
			l53.15,33.63l85.55-80.86l32.01,22.86c0.71,0.5,0.87,1.48,0.37,2.19c-0.5,0.71-1.48,0.87-2.19,0.37l-29.9-21.36l-85.45,80.77
			l-52.99-33.52l-75.11,82.17l-48.69-25.32l-49.64,49.77C457.51,943.6,457.1,943.75,456.7,943.75z"/>
		<path class="st7" d="M838.79,731.46H418.42c-0.87,0-1.57-0.7-1.57-1.57s0.7-1.57,1.57-1.57h420.38c0.87,0,1.57,0.7,1.57,1.57
			S839.66,731.46,838.79,731.46z"/>
		<circle class="st7" cx="456.7" cy="705.99" r="10.42"/>
		<circle class="st8" cx="494.38" cy="705.99" r="10.42"/>
		<circle class="st8" cx="532.05" cy="705.99" r="10.42"/>
		<g>
			<path class="st5" d="M478.85,945.18c-0.61,0-1.23-0.19-1.76-0.58c-1.34-0.98-1.63-2.85-0.66-4.19l43.48-59.64l100.6-18.83
				l58.51-36.57l118.15,3.29c1.66,0.05,2.96,1.43,2.92,3.08c-0.05,1.63-1.38,2.92-3,2.92c-0.03,0-0.06,0-0.09,0l-116.34-3.24
				l-57.94,36.21l-99.37,18.6l-42.08,57.72C480.69,944.75,479.78,945.18,478.85,945.18z"/>
		</g>
	</g>
	<g>
		<g>
			<path class="st9" d="M2182.22,725.06h-475.54c-16.67,0-30.19-13.52-30.19-30.19v-410.1c0-16.67,13.52-30.19,30.19-30.19h475.54
				c16.67,0,30.19,13.52,30.19,30.19v410.1C2212.41,711.54,2198.9,725.06,2182.22,725.06z"/>
			<path class="st7" d="M2176.15,717.71h-475.54c-17.75,0-32.19-14.44-32.19-32.19v-410.1c0-17.75,14.44-32.19,32.19-32.19h475.54
				c17.75,0,32.19,14.44,32.19,32.19v410.1C2208.34,703.27,2193.9,717.71,2176.15,717.71z M1700.61,247.23
				c-15.54,0-28.19,12.64-28.19,28.19v410.1c0,15.54,12.64,28.19,28.19,28.19h475.54c15.54,0,28.19-12.64,28.19-28.19v-410.1
				c0-15.54-12.64-28.19-28.19-28.19H1700.61z"/>
			<path class="st7" d="M2206.34,310.49h-535.92c-1.11,0-2-0.9-2-2c0-1.11,0.9-2,2-2h535.92c1.11,0,2,0.9,2,2
				C2208.34,309.6,2207.44,310.49,2206.34,310.49z"/>
			
				<ellipse transform="matrix(0.1602 -0.9871 0.9871 0.1602 1169.4076 1930.5149)" class="st7" cx="1719.23" cy="278.02" rx="13.28" ry="13.28"/>
			
				<ellipse transform="matrix(0.1602 -0.9871 0.9871 0.1602 1209.7452 1977.9261)" class="st8" cx="1767.26" cy="278.02" rx="13.28" ry="13.28"/>
			
				<ellipse transform="matrix(0.1602 -0.9871 0.9871 0.1602 1250.0829 2025.3373)" class="st8" cx="1815.29" cy="278.02" rx="13.28" ry="13.28"/>
		</g>
		<g>
			
				<ellipse transform="matrix(0.7071 -0.7071 0.7071 0.7071 213.1919 1530.0713)" class="st5" cx="1953.56" cy="507.69" rx="155.74" ry="155.74"/>
			<path class="st7" d="M1953.56,664.96c-0.85,0-1.53-0.69-1.53-1.53V351.95c0-0.85,0.69-1.53,1.53-1.53s1.53,0.69,1.53,1.53v311.47
				C1955.09,664.27,1954.4,664.96,1953.56,664.96z"/>
			<path class="st7" d="M1927.18,660.85c-0.42,0-0.85-0.17-1.15-0.52c-34.42-38.91-52.61-91.69-52.61-152.64
				c0-57.62,17.93-112.84,49.2-151.53c0.53-0.66,1.5-0.76,2.15-0.23c0.66,0.53,0.76,1.5,0.23,2.15
				c-30.83,38.15-48.52,92.67-48.52,149.6c0,60.19,17.93,112.27,51.84,150.61c0.56,0.63,0.5,1.6-0.13,2.16
				C1927.9,660.72,1927.54,660.85,1927.18,660.85z"/>
			<path class="st7" d="M1981.89,662.76c-0.34,0-0.68-0.11-0.96-0.34c-0.66-0.53-0.76-1.5-0.23-2.15
				c30.83-38.15,48.52-92.67,48.52-149.6c0-60.39-19.5-117.06-53.51-155.5c-0.56-0.63-0.5-1.6,0.13-2.16
				c0.63-0.56,1.6-0.5,2.16,0.13c34.49,38.99,54.28,96.4,54.28,157.53c0,57.62-17.93,112.84-49.2,151.53
				C1982.78,662.57,1982.34,662.76,1981.89,662.76z"/>
			<path class="st7" d="M1956.44,443.75c-51.02,0-98.65-10.98-127.41-29.38c-0.71-0.46-0.92-1.4-0.47-2.12
				c0.46-0.71,1.41-0.92,2.12-0.46c28.29,18.09,75.3,28.9,125.76,28.9c47.78,0,93.33-9.91,121.85-26.51
				c0.73-0.43,1.67-0.18,2.09,0.55c0.43,0.73,0.18,1.67-0.55,2.09C2050.44,433.93,2005.46,443.75,1956.44,443.75z"/>
			<path class="st7" d="M1841.7,617.56c-0.58,0-1.13-0.33-1.39-0.89c-0.36-0.77-0.03-1.68,0.74-2.04
				c29.02-13.52,70.02-21.27,112.5-21.27c41.03,0,79.63,6.94,108.69,19.55c0.78,0.34,1.13,1.24,0.8,2.02
				c-0.34,0.78-1.24,1.13-2.01,0.8c-28.68-12.44-66.85-19.3-107.47-19.3c-42.05,0-82.58,7.65-111.21,20.98
				C1842.14,617.52,1841.92,617.56,1841.7,617.56z"/>
			<path class="st7" d="M2109.29,512.2h-311.47c-0.85,0-1.53-0.69-1.53-1.53s0.69-1.53,1.53-1.53h311.47c0.85,0,1.53,0.69,1.53,1.53
				S2110.14,512.2,2109.29,512.2z"/>
		</g>
	</g>
	<g>
		<path class="st7" d="M628.61,681.84c-0.87,0-1.57-0.7-1.57-1.57v-12c0-0.87,0.7-1.57,1.57-1.57c0.87,0,1.57,0.7,1.57,1.57v12
			C630.18,681.13,629.47,681.84,628.61,681.84z M628.61,657.84c-0.87,0-1.57-0.7-1.57-1.57v-12c0-0.87,0.7-1.57,1.57-1.57
			c0.87,0,1.57,0.7,1.57,1.57v12C630.18,657.13,629.47,657.84,628.61,657.84z M628.61,633.84c-0.87,0-1.57-0.7-1.57-1.57v-12
			c0-0.87,0.7-1.57,1.57-1.57c0.87,0,1.57,0.7,1.57,1.57v12C630.18,633.13,629.47,633.84,628.61,633.84z M628.61,609.84
			c-0.87,0-1.57-0.7-1.57-1.57v-12c0-0.87,0.7-1.57,1.57-1.57c0.87,0,1.57,0.7,1.57,1.57v12
			C630.18,609.13,629.47,609.84,628.61,609.84z M628.61,585.84c-0.87,0-1.57-0.7-1.57-1.57v-12c0-0.87,0.7-1.57,1.57-1.57
			c0.87,0,1.57,0.7,1.57,1.57v12C630.18,585.13,629.47,585.84,628.61,585.84z M628.61,561.84c-0.87,0-1.57-0.7-1.57-1.57v-12
			c0-0.87,0.7-1.57,1.57-1.57c0.87,0,1.57,0.7,1.57,1.57v12C630.18,561.13,629.47,561.84,628.61,561.84z M628.61,537.84
			c-0.87,0-1.57-0.7-1.57-1.57v-12c0-0.87,0.7-1.57,1.57-1.57c0.87,0,1.57,0.7,1.57,1.57v12
			C630.18,537.13,629.47,537.84,628.61,537.84z M628.61,513.84c-0.87,0-1.57-0.7-1.57-1.57v-12c0-0.87,0.7-1.57,1.57-1.57
			c0.87,0,1.57,0.7,1.57,1.57v12C630.18,513.13,629.47,513.84,628.61,513.84z M628.61,489.84c-0.87,0-1.57-0.7-1.57-1.57v-12
			c0-0.87,0.7-1.57,1.57-1.57c0.87,0,1.57,0.7,1.57,1.57v12C630.18,489.13,629.47,489.84,628.61,489.84z M628.61,465.84
			c-0.87,0-1.57-0.7-1.57-1.57v-12c0-0.87,0.7-1.57,1.57-1.57c0.87,0,1.57,0.7,1.57,1.57v12
			C630.18,465.13,629.47,465.84,628.61,465.84z M628.61,441.84c-0.87,0-1.57-0.7-1.57-1.57v-12c0-0.87,0.7-1.57,1.57-1.57
			c0.87,0,1.57,0.7,1.57,1.57v12C630.18,441.13,629.47,441.84,628.61,441.84z M1659.98,429.22h-12c-0.87,0-1.57-0.7-1.57-1.57
			c0-0.87,0.7-1.57,1.57-1.57h12c0.87,0,1.57,0.7,1.57,1.57C1661.55,428.51,1660.85,429.22,1659.98,429.22z M1635.98,429.22h-12
			c-0.87,0-1.57-0.7-1.57-1.57c0-0.87,0.7-1.57,1.57-1.57h12c0.87,0,1.57,0.7,1.57,1.57
			C1637.55,428.51,1636.85,429.22,1635.98,429.22z M1611.98,429.22h-12c-0.87,0-1.57-0.7-1.57-1.57c0-0.87,0.7-1.57,1.57-1.57h12
			c0.87,0,1.57,0.7,1.57,1.57C1613.56,428.51,1612.85,429.22,1611.98,429.22z M1587.98,429.22h-12c-0.87,0-1.57-0.7-1.57-1.57
			c0-0.87,0.7-1.57,1.57-1.57h12c0.87,0,1.57,0.7,1.57,1.57C1589.56,428.51,1588.85,429.22,1587.98,429.22z M1563.98,429.22h-12
			c-0.87,0-1.57-0.7-1.57-1.57c0-0.87,0.7-1.57,1.57-1.57h12c0.87,0,1.57,0.7,1.57,1.57
			C1565.56,428.51,1564.85,429.22,1563.98,429.22z M1539.98,429.22h-12c-0.87,0-1.57-0.7-1.57-1.57c0-0.87,0.7-1.57,1.57-1.57h12
			c0.87,0,1.57,0.7,1.57,1.57C1541.56,428.51,1540.85,429.22,1539.98,429.22z M1515.98,429.22h-12c-0.87,0-1.57-0.7-1.57-1.57
			c0-0.87,0.7-1.57,1.57-1.57h12c0.87,0,1.57,0.7,1.57,1.57C1517.56,428.51,1516.85,429.22,1515.98,429.22z M1491.98,429.22h-12
			c-0.87,0-1.57-0.7-1.57-1.57c0-0.87,0.7-1.57,1.57-1.57h12c0.87,0,1.57,0.7,1.57,1.57
			C1493.56,428.51,1492.85,429.22,1491.98,429.22z M1467.98,429.22h-12c-0.87,0-1.57-0.7-1.57-1.57c0-0.87,0.7-1.57,1.57-1.57h12
			c0.87,0,1.57,0.7,1.57,1.57C1469.56,428.51,1468.85,429.22,1467.98,429.22z M1443.98,429.22h-12c-0.87,0-1.57-0.7-1.57-1.57
			c0-0.87,0.7-1.57,1.57-1.57h12c0.87,0,1.57,0.7,1.57,1.57C1445.56,428.51,1444.85,429.22,1443.98,429.22z M1419.98,429.22h-12
			c-0.87,0-1.57-0.7-1.57-1.57c0-0.87,0.7-1.57,1.57-1.57h12c0.87,0,1.57,0.7,1.57,1.57
			C1421.56,428.51,1420.85,429.22,1419.98,429.22z M1395.98,429.22h-12c-0.87,0-1.57-0.7-1.57-1.57c0-0.87,0.7-1.57,1.57-1.57h12
			c0.87,0,1.57,0.7,1.57,1.57C1397.56,428.51,1396.85,429.22,1395.98,429.22z M1371.98,429.22h-12c-0.87,0-1.57-0.7-1.57-1.57
			c0-0.87,0.7-1.57,1.57-1.57h12c0.87,0,1.57,0.7,1.57,1.57C1373.56,428.51,1372.85,429.22,1371.98,429.22z M1347.98,429.22h-12
			c-0.87,0-1.57-0.7-1.57-1.57c0-0.87,0.7-1.57,1.57-1.57h12c0.87,0,1.57,0.7,1.57,1.57
			C1349.56,428.51,1348.85,429.22,1347.98,429.22z M1323.98,429.22h-12c-0.87,0-1.57-0.7-1.57-1.57c0-0.87,0.7-1.57,1.57-1.57h12
			c0.87,0,1.57,0.7,1.57,1.57C1325.56,428.51,1324.85,429.22,1323.98,429.22z M1299.98,429.22h-12c-0.87,0-1.57-0.7-1.57-1.57
			c0-0.87,0.7-1.57,1.57-1.57h12c0.87,0,1.57,0.7,1.57,1.57C1301.56,428.51,1300.85,429.22,1299.98,429.22z M1275.98,429.22h-12
			c-0.87,0-1.57-0.7-1.57-1.57c0-0.87,0.7-1.57,1.57-1.57h12c0.87,0,1.57,0.7,1.57,1.57
			C1277.56,428.51,1276.85,429.22,1275.98,429.22z M1251.98,429.22h-12c-0.87,0-1.57-0.7-1.57-1.57c0-0.87,0.7-1.57,1.57-1.57h12
			c0.87,0,1.57,0.7,1.57,1.57C1253.56,428.51,1252.85,429.22,1251.98,429.22z M1227.98,429.22h-12c-0.87,0-1.57-0.7-1.57-1.57
			c0-0.87,0.7-1.57,1.57-1.57h12c0.87,0,1.57,0.7,1.57,1.57C1229.56,428.51,1228.85,429.22,1227.98,429.22z M1203.98,429.22h-12
			c-0.87,0-1.57-0.7-1.57-1.57c0-0.87,0.7-1.57,1.57-1.57h12c0.87,0,1.57,0.7,1.57,1.57
			C1205.56,428.51,1204.85,429.22,1203.98,429.22z M1179.99,429.22h-12c-0.87,0-1.57-0.7-1.57-1.57c0-0.87,0.7-1.57,1.57-1.57h12
			c0.87,0,1.57,0.7,1.57,1.57C1181.56,428.51,1180.85,429.22,1179.99,429.22z M1155.99,429.22h-12c-0.87,0-1.57-0.7-1.57-1.57
			c0-0.87,0.7-1.57,1.57-1.57h12c0.87,0,1.57,0.7,1.57,1.57C1157.56,428.51,1156.85,429.22,1155.99,429.22z M1131.99,429.22h-12
			c-0.87,0-1.57-0.7-1.57-1.57c0-0.87,0.7-1.57,1.57-1.57h12c0.87,0,1.57,0.7,1.57,1.57
			C1133.56,428.51,1132.85,429.22,1131.99,429.22z M1107.99,429.22h-12c-0.87,0-1.57-0.7-1.57-1.57c0-0.87,0.7-1.57,1.57-1.57h12
			c0.87,0,1.57,0.7,1.57,1.57C1109.56,428.51,1108.85,429.22,1107.99,429.22z M1083.99,429.22h-12c-0.87,0-1.57-0.7-1.57-1.57
			c0-0.87,0.7-1.57,1.57-1.57h12c0.87,0,1.57,0.7,1.57,1.57C1085.56,428.51,1084.85,429.22,1083.99,429.22z M1059.99,429.22h-12
			c-0.87,0-1.57-0.7-1.57-1.57c0-0.87,0.7-1.57,1.57-1.57h12c0.87,0,1.57,0.7,1.57,1.57
			C1061.56,428.51,1060.85,429.22,1059.99,429.22z M1035.99,429.22h-12c-0.87,0-1.57-0.7-1.57-1.57c0-0.87,0.7-1.57,1.57-1.57h12
			c0.87,0,1.57,0.7,1.57,1.57C1037.56,428.51,1036.85,429.22,1035.99,429.22z M1011.99,429.22h-12c-0.87,0-1.57-0.7-1.57-1.57
			c0-0.87,0.7-1.57,1.57-1.57h12c0.87,0,1.57,0.7,1.57,1.57C1013.56,428.51,1012.85,429.22,1011.99,429.22z M987.99,429.22h-12
			c-0.87,0-1.57-0.7-1.57-1.57c0-0.87,0.7-1.57,1.57-1.57h12c0.87,0,1.57,0.7,1.57,1.57C989.56,428.51,988.85,429.22,987.99,429.22z
			 M963.99,429.22h-12c-0.87,0-1.57-0.7-1.57-1.57c0-0.87,0.7-1.57,1.57-1.57h12c0.87,0,1.57,0.7,1.57,1.57
			C965.56,428.51,964.85,429.22,963.99,429.22z M939.99,429.22h-12c-0.87,0-1.57-0.7-1.57-1.57c0-0.87,0.7-1.57,1.57-1.57h12
			c0.87,0,1.57,0.7,1.57,1.57C941.56,428.51,940.85,429.22,939.99,429.22z M915.99,429.22h-12c-0.87,0-1.57-0.7-1.57-1.57
			c0-0.87,0.7-1.57,1.57-1.57h12c0.87,0,1.57,0.7,1.57,1.57C917.56,428.51,916.85,429.22,915.99,429.22z M891.99,429.22h-12
			c-0.87,0-1.57-0.7-1.57-1.57c0-0.87,0.7-1.57,1.57-1.57h12c0.87,0,1.57,0.7,1.57,1.57C893.56,428.51,892.85,429.22,891.99,429.22z
			 M867.99,429.22h-12c-0.87,0-1.57-0.7-1.57-1.57c0-0.87,0.7-1.57,1.57-1.57h12c0.87,0,1.57,0.7,1.57,1.57
			C869.56,428.51,868.85,429.22,867.99,429.22z M843.99,429.22h-12c-0.87,0-1.57-0.7-1.57-1.57c0-0.87,0.7-1.57,1.57-1.57h12
			c0.87,0,1.57,0.7,1.57,1.57C845.56,428.51,844.85,429.22,843.99,429.22z M819.99,429.22h-12c-0.87,0-1.57-0.7-1.57-1.57
			c0-0.87,0.7-1.57,1.57-1.57h12c0.87,0,1.57,0.7,1.57,1.57C821.56,428.51,820.85,429.22,819.99,429.22z M795.99,429.22h-12
			c-0.87,0-1.57-0.7-1.57-1.57c0-0.87,0.7-1.57,1.57-1.57h12c0.87,0,1.57,0.7,1.57,1.57C797.56,428.51,796.85,429.22,795.99,429.22z
			 M771.99,429.22h-12c-0.87,0-1.57-0.7-1.57-1.57c0-0.87,0.7-1.57,1.57-1.57h12c0.87,0,1.57,0.7,1.57,1.57
			C773.56,428.51,772.85,429.22,771.99,429.22z M747.99,429.22h-12c-0.87,0-1.57-0.7-1.57-1.57c0-0.87,0.7-1.57,1.57-1.57h12
			c0.87,0,1.57,0.7,1.57,1.57C749.56,428.51,748.85,429.22,747.99,429.22z M723.99,429.22h-12c-0.87,0-1.57-0.7-1.57-1.57
			c0-0.87,0.7-1.57,1.57-1.57h12c0.87,0,1.57,0.7,1.57,1.57C725.56,428.51,724.85,429.22,723.99,429.22z M699.99,429.22h-12
			c-0.87,0-1.57-0.7-1.57-1.57c0-0.87,0.7-1.57,1.57-1.57h12c0.87,0,1.57,0.7,1.57,1.57C701.56,428.51,700.85,429.22,699.99,429.22z
			 M675.99,429.22h-12c-0.87,0-1.57-0.7-1.57-1.57c0-0.87,0.7-1.57,1.57-1.57h12c0.87,0,1.57,0.7,1.57,1.57
			C677.56,428.51,676.85,429.22,675.99,429.22z M651.99,429.22h-12c-0.87,0-1.57-0.7-1.57-1.57c0-0.87,0.7-1.57,1.57-1.57h12
			c0.87,0,1.57,0.7,1.57,1.57C653.56,428.51,652.85,429.22,651.99,429.22z"/>
		
			<ellipse transform="matrix(0.7071 -0.7071 0.7071 0.7071 -120.0353 573.639)" class="st8" cx="632.43" cy="431.71" rx="31.03" ry="31.03"/>
	</g>
	<g>
		<path class="st7" d="M2595.95,505.08c-0.87,0-1.57-0.7-1.57-1.57v-12c0-0.87,0.7-1.57,1.57-1.57s1.57,0.7,1.57,1.57v12
			C2597.52,504.37,2596.82,505.08,2595.95,505.08z M2595.95,481.08c-0.87,0-1.57-0.7-1.57-1.57v-12c0-0.87,0.7-1.57,1.57-1.57
			s1.57,0.7,1.57,1.57v12C2597.52,480.37,2596.82,481.08,2595.95,481.08z M2595.95,457.08c-0.87,0-1.57-0.7-1.57-1.57v-12
			c0-0.87,0.7-1.57,1.57-1.57s1.57,0.7,1.57,1.57v12C2597.52,456.37,2596.82,457.08,2595.95,457.08z M2595.95,433.08
			c-0.87,0-1.57-0.7-1.57-1.57v-2.29h-6.57c-0.87,0-1.57-0.7-1.57-1.57c0-0.87,0.7-1.57,1.57-1.57h9.71v5.43
			C2597.52,432.37,2596.82,433.08,2595.95,433.08z M2575.81,429.22h-12c-0.87,0-1.57-0.7-1.57-1.57c0-0.87,0.7-1.57,1.57-1.57h12
			c0.87,0,1.57,0.7,1.57,1.57C2577.38,428.51,2576.68,429.22,2575.81,429.22z M2551.81,429.22h-12c-0.87,0-1.57-0.7-1.57-1.57
			c0-0.87,0.7-1.57,1.57-1.57h12c0.87,0,1.57,0.7,1.57,1.57C2553.38,428.51,2552.68,429.22,2551.81,429.22z M2527.81,429.22h-12
			c-0.87,0-1.57-0.7-1.57-1.57c0-0.87,0.7-1.57,1.57-1.57h12c0.87,0,1.57,0.7,1.57,1.57
			C2529.38,428.51,2528.68,429.22,2527.81,429.22z M2503.81,429.22h-12c-0.87,0-1.57-0.7-1.57-1.57c0-0.87,0.7-1.57,1.57-1.57h12
			c0.87,0,1.57,0.7,1.57,1.57C2505.38,428.51,2504.68,429.22,2503.81,429.22z M2479.81,429.22h-12c-0.87,0-1.57-0.7-1.57-1.57
			c0-0.87,0.7-1.57,1.57-1.57h12c0.87,0,1.57,0.7,1.57,1.57C2481.38,428.51,2480.68,429.22,2479.81,429.22z M2455.81,429.22h-12
			c-0.87,0-1.57-0.7-1.57-1.57c0-0.87,0.7-1.57,1.57-1.57h12c0.87,0,1.57,0.7,1.57,1.57
			C2457.38,428.51,2456.68,429.22,2455.81,429.22z M2431.81,429.22h-12c-0.87,0-1.57-0.7-1.57-1.57c0-0.87,0.7-1.57,1.57-1.57h12
			c0.87,0,1.57,0.7,1.57,1.57C2433.38,428.51,2432.68,429.22,2431.81,429.22z M2407.81,429.22h-12c-0.87,0-1.57-0.7-1.57-1.57
			c0-0.87,0.7-1.57,1.57-1.57h12c0.87,0,1.57,0.7,1.57,1.57C2409.38,428.51,2408.68,429.22,2407.81,429.22z M2383.81,429.22h-12
			c-0.87,0-1.57-0.7-1.57-1.57c0-0.87,0.7-1.57,1.57-1.57h12c0.87,0,1.57,0.7,1.57,1.57
			C2385.38,428.51,2384.68,429.22,2383.81,429.22z M2359.81,429.22h-12c-0.87,0-1.57-0.7-1.57-1.57c0-0.87,0.7-1.57,1.57-1.57h12
			c0.87,0,1.57,0.7,1.57,1.57C2361.38,428.51,2360.68,429.22,2359.81,429.22z M2335.81,429.22h-12c-0.87,0-1.57-0.7-1.57-1.57
			c0-0.87,0.7-1.57,1.57-1.57h12c0.87,0,1.57,0.7,1.57,1.57C2337.38,428.51,2336.68,429.22,2335.81,429.22z M2311.81,429.22h-12
			c-0.87,0-1.57-0.7-1.57-1.57c0-0.87,0.7-1.57,1.57-1.57h12c0.87,0,1.57,0.7,1.57,1.57
			C2313.38,428.51,2312.68,429.22,2311.81,429.22z M2287.81,429.22h-12c-0.87,0-1.57-0.7-1.57-1.57c0-0.87,0.7-1.57,1.57-1.57h12
			c0.87,0,1.57,0.7,1.57,1.57C2289.38,428.51,2288.68,429.22,2287.81,429.22z M2263.81,429.22h-12c-0.87,0-1.57-0.7-1.57-1.57
			c0-0.87,0.7-1.57,1.57-1.57h12c0.87,0,1.57,0.7,1.57,1.57C2265.38,428.51,2264.68,429.22,2263.81,429.22z M2239.81,429.22h-12
			c-0.87,0-1.57-0.7-1.57-1.57c0-0.87,0.7-1.57,1.57-1.57h12c0.87,0,1.57,0.7,1.57,1.57
			C2241.38,428.51,2240.68,429.22,2239.81,429.22z M2215.81,429.22h-12c-0.87,0-1.57-0.7-1.57-1.57c0-0.87,0.7-1.57,1.57-1.57h12
			c0.87,0,1.57,0.7,1.57,1.57C2217.38,428.51,2216.68,429.22,2215.81,429.22z"/>
		
			<ellipse transform="matrix(0.7071 -0.7071 0.7071 0.7071 457.9452 1960.8707)" class="st8" cx="2595.95" cy="427.65" rx="31.03" ry="31.03"/>
	</g>
	<g>
		<g>
			<g>
				<path class="st9" d="M3101.45,1753.46h-364.58c-12.78,0-23.14-10.36-23.14-23.14V1415.9c0-12.78,10.36-23.14,23.14-23.14h364.58
					c12.78,0,23.14,10.36,23.14,23.14v314.41C3124.6,1743.09,3114.23,1753.46,3101.45,1753.46z"/>
				<path class="st7" d="M3096.8,1747.82h-364.58c-13.61,0-24.68-11.07-24.68-24.68v-314.41c0-13.61,11.07-24.68,24.68-24.68h364.58
					c13.61,0,24.68,11.07,24.68,24.68v314.41C3121.48,1736.75,3110.41,1747.82,3096.8,1747.82z M2732.21,1387.12
					c-11.92,0-21.61,9.69-21.61,21.61v314.41c0,11.92,9.69,21.61,21.61,21.61h364.58c11.92,0,21.61-9.69,21.61-21.61v-314.41
					c0-11.92-9.69-21.61-21.61-21.61H2732.21z"/>
				<path class="st7" d="M3119.94,1435.62h-410.87c-0.85,0-1.54-0.69-1.54-1.54s0.69-1.54,1.54-1.54h410.87
					c0.85,0,1.54,0.69,1.54,1.54S3120.79,1435.62,3119.94,1435.62z"/>
				<circle class="st7" cx="2746.49" cy="1410.73" r="10.18"/>
				<circle class="st8" cx="2783.31" cy="1410.73" r="10.18"/>
				<circle class="st8" cx="2820.14" cy="1410.73" r="10.18"/>
			</g>
			<g>
				<g>
					<path class="st5" d="M2978.61,1595.93v-43.05h-30.72c-1.68-5.88-4.03-11.48-6.95-16.72l21.74-21.74l-30.44-30.44l-21.74,21.74
						c-5.24-2.93-10.83-5.28-16.72-6.95v-30.72h-43.05v30.72c-5.88,1.68-11.48,4.03-16.72,6.95l-21.74-21.74l-30.44,30.44
						l21.74,21.74c-2.93,5.24-5.28,10.83-6.95,16.72h-30.72v43.05h30.72c1.68,5.88,4.03,11.48,6.95,16.72l-21.74,21.74l30.44,30.44
						l21.74-21.74c5.24,2.93,10.83,5.28,16.72,6.95v30.72h43.05v-30.72c5.88-1.68,11.48-4.03,16.72-6.95l21.74,21.74l30.44-30.44
						l-21.74-21.74c2.93-5.24,5.28-10.83,6.95-16.72H2978.61z M2872.26,1622.38c-26.46,0-47.98-21.52-47.98-47.98
						c0-26.46,21.52-47.98,47.98-47.98s47.98,21.52,47.98,47.98C2920.24,1600.86,2898.71,1622.38,2872.26,1622.38z"/>
					<path class="st7" d="M2872.26,1633.54c-32.61,0-59.14-26.53-59.14-59.14s26.53-59.14,59.14-59.14s59.14,26.53,59.14,59.14
						S2904.87,1633.54,2872.26,1633.54z M2872.26,1518.18c-31,0-56.22,25.22-56.22,56.22s25.22,56.22,56.22,56.22
						s56.22-25.22,56.22-56.22S2903.26,1518.18,2872.26,1518.18z"/>
				</g>
				<g>
					<path class="st5" d="M3072.42,1664.98v-22.75h-16.24c-0.89-3.11-2.13-6.07-3.67-8.83l11.49-11.49l-16.09-16.09l-11.49,11.49
						c-2.77-1.55-5.73-2.79-8.83-3.67v-16.24h-22.75v16.24c-3.11,0.89-6.07,2.13-8.83,3.67l-11.49-11.49l-16.09,16.09l11.49,11.49
						c-1.55,2.77-2.79,5.73-3.67,8.83H2960v22.75h16.24c0.89,3.11,2.13,6.07,3.67,8.83l-11.49,11.49l16.09,16.09l11.49-11.49
						c2.77,1.55,5.73,2.79,8.83,3.67v16.24h22.75v-16.24c3.11-0.89,6.07-2.13,8.83-3.67l11.49,11.49l16.09-16.09l-11.49-11.49
						c1.55-2.77,2.79-5.73,3.67-8.83H3072.42z M3016.21,1678.96c-13.98,0-25.36-11.38-25.36-25.36c0-13.98,11.38-25.36,25.36-25.36
						s25.36,11.38,25.36,25.36C3041.57,1667.58,3030.19,1678.96,3016.21,1678.96z"/>
					<path class="st7" d="M3016.21,1684.86c-17.24,0-31.26-14.02-31.26-31.26s14.02-31.26,31.26-31.26s31.26,14.02,31.26,31.26
						S3033.45,1684.86,3016.21,1684.86z M3016.21,1623.89c-16.38,0-29.71,13.33-29.71,29.71s13.33,29.71,29.71,29.71
						s29.71-13.33,29.71-29.71S3032.6,1623.89,3016.21,1623.89z"/>
				</g>
			</g>
		</g>
		<g>
			<path class="st7" d="M2711.61,1680.53h-12c-0.87,0-1.57-0.7-1.57-1.57s0.7-1.57,1.57-1.57h12c0.87,0,1.57,0.7,1.57,1.57
				S2712.48,1680.53,2711.61,1680.53z M2687.61,1680.53h-12c-0.87,0-1.57-0.7-1.57-1.57s0.7-1.57,1.57-1.57h12
				c0.87,0,1.57,0.7,1.57,1.57S2688.48,1680.53,2687.61,1680.53z M2663.61,1680.53h-12c-0.87,0-1.57-0.7-1.57-1.57
				s0.7-1.57,1.57-1.57h12c0.87,0,1.57,0.7,1.57,1.57S2664.48,1680.53,2663.61,1680.53z M2639.61,1680.53h-12
				c-0.87,0-1.57-0.7-1.57-1.57s0.7-1.57,1.57-1.57h12c0.87,0,1.57,0.7,1.57,1.57S2640.48,1680.53,2639.61,1680.53z
				 M2615.61,1680.53h-12c-0.87,0-1.57-0.7-1.57-1.57s0.7-1.57,1.57-1.57h12c0.87,0,1.57,0.7,1.57,1.57
				S2616.48,1680.53,2615.61,1680.53z M2591.61,1680.53h-12c-0.87,0-1.57-0.7-1.57-1.57s0.7-1.57,1.57-1.57h12
				c0.87,0,1.57,0.7,1.57,1.57S2592.48,1680.53,2591.61,1680.53z M2567.61,1680.53h-12c-0.87,0-1.57-0.7-1.57-1.57
				s0.7-1.57,1.57-1.57h12c0.87,0,1.57,0.7,1.57,1.57S2568.48,1680.53,2567.61,1680.53z M2543.61,1680.53h-12
				c-0.87,0-1.57-0.7-1.57-1.57s0.7-1.57,1.57-1.57h12c0.87,0,1.57,0.7,1.57,1.57S2544.48,1680.53,2543.61,1680.53z
				 M2519.61,1680.53h-12c-0.87,0-1.57-0.7-1.57-1.57s0.7-1.57,1.57-1.57h12c0.87,0,1.57,0.7,1.57,1.57
				S2520.48,1680.53,2519.61,1680.53z M2495.61,1680.53h-12c-0.87,0-1.57-0.7-1.57-1.57s0.7-1.57,1.57-1.57h12
				c0.87,0,1.57,0.7,1.57,1.57S2496.48,1680.53,2495.61,1680.53z M2471.61,1680.53h-12c-0.87,0-1.57-0.7-1.57-1.57
				s0.7-1.57,1.57-1.57h12c0.87,0,1.57,0.7,1.57,1.57S2472.48,1680.53,2471.61,1680.53z M2447.61,1680.53h-12
				c-0.87,0-1.57-0.7-1.57-1.57s0.7-1.57,1.57-1.57h12c0.87,0,1.57,0.7,1.57,1.57S2448.48,1680.53,2447.61,1680.53z
				 M2423.61,1680.53h-12c-0.87,0-1.57-0.7-1.57-1.57s0.7-1.57,1.57-1.57h12c0.87,0,1.57,0.7,1.57,1.57
				S2424.48,1680.53,2423.61,1680.53z M2399.61,1680.53h-12c-0.87,0-1.57-0.7-1.57-1.57s0.7-1.57,1.57-1.57h12
				c0.87,0,1.57,0.7,1.57,1.57S2400.48,1680.53,2399.61,1680.53z M2375.61,1680.53h-12c-0.87,0-1.57-0.7-1.57-1.57
				s0.7-1.57,1.57-1.57h12c0.87,0,1.57,0.7,1.57,1.57S2376.48,1680.53,2375.61,1680.53z M2351.61,1680.53h-12
				c-0.87,0-1.57-0.7-1.57-1.57s0.7-1.57,1.57-1.57h12c0.87,0,1.57,0.7,1.57,1.57S2352.48,1680.53,2351.61,1680.53z
				 M2327.61,1680.53h-12c-0.87,0-1.57-0.7-1.57-1.57s0.7-1.57,1.57-1.57h12c0.87,0,1.57,0.7,1.57,1.57
				S2328.48,1680.53,2327.61,1680.53z M2303.61,1680.53h-12c-0.87,0-1.57-0.7-1.57-1.57s0.7-1.57,1.57-1.57h12
				c0.87,0,1.57,0.7,1.57,1.57S2304.48,1680.53,2303.61,1680.53z M2279.61,1680.53h-12c-0.87,0-1.57-0.7-1.57-1.57
				s0.7-1.57,1.57-1.57h12c0.87,0,1.57,0.7,1.57,1.57S2280.48,1680.53,2279.61,1680.53z M2255.61,1680.53h-12
				c-0.87,0-1.57-0.7-1.57-1.57s0.7-1.57,1.57-1.57h12c0.87,0,1.57,0.7,1.57,1.57S2256.48,1680.53,2255.61,1680.53z
				 M2231.61,1680.53h-12c-0.87,0-1.57-0.7-1.57-1.57s0.7-1.57,1.57-1.57h12c0.87,0,1.57,0.7,1.57,1.57
				S2232.48,1680.53,2231.61,1680.53z M2207.61,1680.53h-12c-0.87,0-1.57-0.7-1.57-1.57s0.7-1.57,1.57-1.57h12
				c0.87,0,1.57,0.7,1.57,1.57S2208.48,1680.53,2207.61,1680.53z M2183.61,1680.53h-12c-0.87,0-1.57-0.7-1.57-1.57
				s0.7-1.57,1.57-1.57h12c0.87,0,1.57,0.7,1.57,1.57S2184.48,1680.53,2183.61,1680.53z M2159.61,1680.53h-12
				c-0.87,0-1.57-0.7-1.57-1.57s0.7-1.57,1.57-1.57h12c0.87,0,1.57,0.7,1.57,1.57S2160.48,1680.53,2159.61,1680.53z
				 M2135.61,1680.53h-12c-0.87,0-1.57-0.7-1.57-1.57s0.7-1.57,1.57-1.57h12c0.87,0,1.57,0.7,1.57,1.57
				S2136.48,1680.53,2135.61,1680.53z M2123.56,1668.58c-0.87,0-1.57-0.7-1.57-1.57v-12c0-0.87,0.7-1.57,1.57-1.57
				s1.57,0.7,1.57,1.57v12C2125.13,1667.88,2124.42,1668.58,2123.56,1668.58z M2123.56,1644.58c-0.87,0-1.57-0.7-1.57-1.57v-12
				c0-0.87,0.7-1.57,1.57-1.57s1.57,0.7,1.57,1.57v12C2125.13,1643.88,2124.42,1644.58,2123.56,1644.58z M2123.56,1620.58
				c-0.87,0-1.57-0.7-1.57-1.57v-12c0-0.87,0.7-1.57,1.57-1.57s1.57,0.7,1.57,1.57v12
				C2125.13,1619.88,2124.42,1620.58,2123.56,1620.58z M2123.56,1596.58c-0.87,0-1.57-0.7-1.57-1.57v-12c0-0.87,0.7-1.57,1.57-1.57
				s1.57,0.7,1.57,1.57v12C2125.13,1595.88,2124.42,1596.58,2123.56,1596.58z"/>
			
				<ellipse transform="matrix(0.2298 -0.9732 0.9732 0.2298 -0.1292 3361.345)" class="st8" cx="2123.56" cy="1680.75" rx="31.03" ry="31.03"/>
		</g>
	</g>
	<g>
		<g>
			<g>
				<path class="st10" d="M534.52,1293.59l-36.28-33.18l-64.48-81.89c-3.79-4.81-10.87-5.37-15.36-1.22v0
					c-6.25,5.77-8.6,14.64-6.03,22.76l20.09,63.21l-128.13-28.96c-6.16-1.39-12.02,3.29-12.02,9.6v4.95
					c0,39.03,19.15,75.57,51.24,97.79l7.99,5.53c15.91,11.01,34.8,16.91,54.15,16.91h66.1l20.07,13.64L534.52,1293.59z"/>
				<path class="st7" d="M458.45,1343.83c-0.57,0-1.14-0.18-1.63-0.55c-14.61-11.14-23.92-28.61-26.91-50.52
					c-2.24-16.4-0.2-29.37-0.12-29.91c0.24-1.47,1.62-2.47,3.09-2.23c1.47,0.24,2.47,1.62,2.24,3.09
					c-0.08,0.5-7.64,50.43,24.97,75.29c1.18,0.9,1.41,2.59,0.51,3.78C460.07,1343.47,459.26,1343.83,458.45,1343.83z"/>
				<path class="st7" d="M399.97,1286.54c-0.18,0-0.37-0.02-0.55-0.06c-0.26-0.05-26.35-5.46-52.1-10.87
					c-15.13-3.18-27.19-5.75-35.85-7.62c-5.15-1.12-9.13-2-11.85-2.62c-5.52-1.27-6.37-1.46-6.58-3.5c-0.15-1.48,0.92-2.81,2.4-2.96
					c0.51-0.05,1.01,0.04,1.44,0.25c4.44,1.35,64.13,13.86,103.63,22.04c1.46,0.3,2.4,1.73,2.09,3.19
					C402.35,1285.66,401.22,1286.54,399.97,1286.54z M298.41,1261.3C298.41,1261.3,298.41,1261.3,298.41,1261.3
					S298.41,1261.3,298.41,1261.3z M298.4,1261.29C298.4,1261.29,298.4,1261.29,298.4,1261.29
					C298.4,1261.29,298.4,1261.29,298.4,1261.29z M298.4,1261.29C298.4,1261.29,298.4,1261.29,298.4,1261.29
					C298.4,1261.29,298.4,1261.29,298.4,1261.29z M298.4,1261.28L298.4,1261.28L298.4,1261.28z M298.4,1261.27
					C298.4,1261.27,298.4,1261.27,298.4,1261.27C298.4,1261.27,298.4,1261.27,298.4,1261.27z M298.4,1261.26
					C298.4,1261.26,298.4,1261.27,298.4,1261.26C298.4,1261.27,298.4,1261.26,298.4,1261.26z M298.4,1261.26
					C298.4,1261.26,298.4,1261.26,298.4,1261.26C298.4,1261.26,298.4,1261.26,298.4,1261.26z M298.4,1261.25
					C298.4,1261.25,298.4,1261.25,298.4,1261.25C298.4,1261.25,298.4,1261.25,298.4,1261.25z M298.4,1261.24
					C298.4,1261.24,298.4,1261.24,298.4,1261.24C298.4,1261.24,298.4,1261.24,298.4,1261.24z M298.4,1261.24
					C298.4,1261.24,298.4,1261.24,298.4,1261.24C298.4,1261.24,298.4,1261.24,298.4,1261.24z M298.4,1261.23
					C298.4,1261.23,298.4,1261.23,298.4,1261.23C298.4,1261.23,298.4,1261.23,298.4,1261.23z M298.4,1261.22
					C298.4,1261.22,298.4,1261.22,298.4,1261.22C298.4,1261.22,298.4,1261.22,298.4,1261.22z M298.39,1261.21L298.39,1261.21
					L298.39,1261.21z M298.39,1261.21C298.39,1261.21,298.39,1261.21,298.39,1261.21C298.39,1261.21,298.39,1261.21,298.39,1261.21z
					 M298.39,1261.2L298.39,1261.2L298.39,1261.2z M298.39,1261.19L298.39,1261.19L298.39,1261.19z"/>
				<path class="st7" d="M406.25,1312.57c-0.15,0-0.31-0.01-0.46-0.04c-0.26-0.04-26.72-4.59-52.86-9.15
					c-15.35-2.68-27.59-4.85-36.38-6.44c-5.22-0.94-9.27-1.69-12.03-2.23c-5.5-1.06-6.35-1.23-6.72-3.14
					c-0.28-1.46,0.67-2.88,2.13-3.16c0.56-0.11,1.1-0.04,1.58,0.17c4.46,1.18,65.07,11.74,105.18,18.62
					c1.47,0.25,2.45,1.65,2.2,3.11C408.68,1311.65,407.54,1312.57,406.25,1312.57z M303.1,1290.55L303.1,1290.55L303.1,1290.55z
					 M303.1,1290.54C303.1,1290.54,303.1,1290.54,303.1,1290.54C303.1,1290.54,303.1,1290.54,303.1,1290.54z M302.71,1289.59
					c0.18,0.28,0.32,0.6,0.39,0.95C303.02,1290.17,302.88,1289.85,302.71,1289.59z"/>
				<path class="st7" d="M401.5,1340.97c-0.1-0.01-0.44-0.06-0.99-0.12c-2.62-0.24-7.56-1.09-17.46-2.77
					c-11.93-2.03-32.92-5.82-65.21-12.29c-1.46-0.29-2.41-1.71-2.11-3.17c0.29-1.46,1.72-2.41,3.17-2.11
					c62.4,12.51,83.11,15.11,83.28,15.13l0,0.02c1.24,0.22,1.81,0.59,2.25,1.66c0.37,0.92,0.21,1.97-0.42,2.73
					c-0.5,0.61-0.79,0.96-2.5,0.89L401.5,1340.97z"/>
			</g>
			<g>
				<path class="st7" d="M2059.37,1105.01l-297.64,249.63l-235.28-227.78c-25.92-33.22-66.33-54.58-111.73-54.58h-272.07
					c-19.56,0-38.19,3.96-55.14,11.13c-34.23,14.48-49.99,33.01-68.76,63.64l0,0l-151.84,271.5l-332.61-138l-55.79,116.56
					l321.84,202.68c25.34,15.96,54.67,24.42,84.62,24.42l0,0c48.68,0,94.67-22.33,124.77-60.57l56.36-86.95l33.73,353.88h453.67
					l1.68-360.95l102.67,71.66c33.04,23.06,73.53,32.9,113.47,27.58l0,0c39.16-5.22,75.03-24.65,100.8-54.6l277.77-330.47
					L2059.37,1105.01z"/>
				<g>
					<path class="st10" d="M1289.5,1143.66L1289.5,1143.66c-31.42,11.29-65.81-6.57-74.63-38.77l-52.88-192.96l76.21-27.39
						l83.9,181.13C1336.24,1096.2,1321.16,1132.28,1289.5,1143.66z"/>
					<path class="st10" d="M1075.04,735.69l241.09-86.65l3.36,15.68c11.63,54.2,28.2,107.26,50.37,158.06
						c10.61,24.31,19.49,54.61,15.69,83.07c-7.46,55.82-56.63,97.28-112.73,92.44C1216.26,993.4,1116.01,950.43,1075.04,735.69z"/>
					<path class="st11" d="M1300.45,867.49c-1.11,0-2.14-0.69-2.54-1.79c-0.5-1.4,0.22-2.95,1.63-3.45l22.26-8
						c1.92-0.69,3.38-2.21,3.99-4.16c0.61-1.95,0.29-4.03-0.89-5.7l-44.38-62.79c-0.86-1.22-0.57-2.9,0.65-3.76
						c1.22-0.86,2.9-0.57,3.76,0.65l44.38,62.79c2.16,3.06,2.75,6.86,1.63,10.43c-1.13,3.57-3.79,6.34-7.31,7.61l-22.26,8
						C1301.06,867.44,1300.75,867.49,1300.45,867.49z"/>
					
						<ellipse transform="matrix(0.9742 -0.2256 0.2256 0.9742 -149.7831 301.594)" class="st11" cx="1244.65" cy="806.13" rx="13.01" ry="9.02"/>
					<path class="st11" d="M1343.33,766.52c1.94,5.4-1.97,11.74-8.73,14.17c-6.76,2.43-13.81,0.03-15.75-5.37
						c-1.94-5.4,1.97-11.74,8.73-14.17S1341.39,761.12,1343.33,766.52z"/>
					<path class="st12" d="M1289.17,899.38c2.32,5.7,11.05,19.45,40.83,17.22c1.49-0.1,2.78,1,2.89,2.49c0.11,1.49-1,2.78-2.49,2.89
						c-2.02,0.15-4.18,0.24-6.42,0.24c-10.89,0-23.73-2.21-32.75-10.75c-6.7-6.34-8.06-13.17-8.12-13.45l-0.47-2.45"/>
					<path class="st13" d="M1291.11,1001.37c-7.79,0-41.54-1.05-71.57-18.29c-1.29-0.74-1.74-2.39-1-3.68
						c0.74-1.29,2.39-1.74,3.68-1c32.11,18.43,69.96,17.57,70.34,17.55c1.5-0.02,2.73,1.13,2.77,2.62c0.04,1.49-1.13,2.73-2.62,2.77
						C1292.56,1001.35,1292.01,1001.37,1291.11,1001.37z"/>
					<path class="st11" d="M1120.68,760.38c0,0,33.95,83.58,18.52,104.22c-15.44,20.64-31.38-2.65-31.38-2.65
						s-59.87-76.46-20.6-112.25C1111.28,727.76,1120.68,760.38,1120.68,760.38z"/>
					
						<ellipse transform="matrix(0.9411 -0.3382 0.3382 0.9411 -226.8318 428.4557)" class="st10" cx="1115.99" cy="865.1" rx="28.63" ry="41.97"/>
					<path class="st11" d="M1117.23,788.58c0,0,65.43,9.61,74.91-44.9c0,0,55.78,13.43,73.31-27.65c0,0,98.11,41.87,103.64-52.14
						s-62.41-116.92-62.41-116.92s9.48,37.13-8.69,43.45c-18.17,6.32-97.17-18.17-201.45,58.46
						C992.27,725.51,1078.67,787.66,1117.23,788.58z"/>
					<path class="st11" d="M1201.09,798.24c-1.34,0-2.68-0.4-3.86-1.23c-3.02-2.13-3.75-6.32-1.61-9.34
						c19.67-27.87,59.46-28.19,61.15-28.19c3.7,0,6.7,3,6.7,6.7c0,3.7-3,6.7-6.69,6.7l0,0c-0.34,0-34.58,0.37-50.21,22.51
						C1205.26,797.25,1203.19,798.24,1201.09,798.24z"/>
					<path class="st11" d="M1289.35,764.66c-1.34,0-2.69-0.4-3.86-1.23c-3.02-2.13-3.75-6.32-1.61-9.34
						c19.67-27.87,59.46-28.19,61.15-28.19c3.7,0,6.7,3,6.7,6.7c0,3.7-3,6.7-6.7,6.7c-0.52,0-34.62,0.43-50.2,22.51
						C1293.52,763.68,1291.45,764.66,1289.35,764.66z"/>
				</g>
				<g>
					<polygon class="st9" points="1205.93,1072.28 1270.81,1147.05 1197.81,1183.78 1176.96,1072.28 					"/>
					<polygon class="st9" points="1270.81,1147.05 1333.82,1183.78 1355.68,1072.28 1323.27,1072.28 					"/>
					<polygon class="st6" points="1270.81,1147.05 1244.71,1160.18 1270.81,1577.96 1313.24,1636.35 1355.68,1570.95 
						1290.9,1158.76 					"/>
				</g>
			</g>
			<g>
				<path class="st10" d="M2075.39,1118.95l20.72-45.37c6.71-14.7,17.22-27.35,30.44-36.65l64.36-45.27l5.71,33.72l-28.92,38.31
					l36.11,48.02l-68.85,59.07L2075.39,1118.95z"/>
				<path class="st7" d="M2149.9,1126.55c-0.77,0-1.56-0.12-2.33-0.37c-3.99-1.29-6.19-5.57-4.9-9.56l156.52-485.78
					c1.29-3.99,5.57-6.19,9.56-4.9c3.99,1.29,6.19,5.57,4.9,9.56l-156.52,485.78C2156.09,1124.5,2153.11,1126.55,2149.9,1126.55z"/>
				<path class="st10" d="M2145.43,1053.57l44.99-68.28c2.76-4.2,8.38-5.4,12.62-2.71l21.05,13.37c9.7,6.16,15.01,17.33,13.67,28.74
					l-4.21,45.94c-0.98,10.69-6.06,20.58-14.17,27.61l-15.57,13.48l-46.22-30.49L2145.43,1053.57z"/>
				<path class="st7" d="M2172.12,1116.54c-0.64,0-1.28-0.22-1.79-0.68c-1.11-0.99-1.21-2.7-0.22-3.81l14-15.73
					c0.53-0.6,0.45-1.27,0.39-1.53c-0.06-0.26-0.28-0.89-1.01-1.19c-4.55-1.87-12.17-5.11-22.56-9.93
					c-8.34-3.87-14.13-11.37-16.74-21.69c-1.92-7.6-1.45-14.05-1.43-14.32c0.12-1.49,1.43-2.58,2.9-2.48
					c1.48,0.12,2.59,1.41,2.48,2.89l0,0c-0.02,0.23-1.52,23,15.06,30.7c10.31,4.78,17.84,7.99,22.34,9.83
					c2.13,0.87,3.71,2.73,4.22,4.97c0.52,2.24-0.09,4.61-1.62,6.33l-14,15.73C2173.6,1116.24,2172.86,1116.54,2172.12,1116.54z"/>
				<path class="st7" d="M2212.41,1062.75c-0.43,0-0.86-0.1-1.26-0.32l-54.02-28.63c-1.32-0.7-1.82-2.33-1.12-3.65
					c0.7-1.32,2.33-1.82,3.65-1.12l54.02,28.63c1.32,0.7,1.82,2.33,1.12,3.65C2214.31,1062.23,2213.37,1062.75,2212.41,1062.75z"/>
				<path class="st7" d="M2225.05,1035.18c-0.45,0-0.9-0.11-1.31-0.34l-45.98-25.73c-1.3-0.73-1.76-2.37-1.04-3.67
					c0.73-1.3,2.37-1.77,3.67-1.04l45.98,25.73c1.3,0.73,1.76,2.37,1.04,3.67C2226.91,1034.68,2226,1035.18,2225.05,1035.18z"/>
				<path class="st7" d="M2135.72,1107.27c-0.5,0-1-0.14-1.45-0.43c-1.25-0.8-1.62-2.47-0.82-3.73l18.54-28.93
					c0.8-1.25,2.47-1.62,3.73-0.82c1.25,0.8,1.62,2.47,0.82,3.73l-18.54,28.93C2137.48,1106.83,2136.61,1107.27,2135.72,1107.27z"/>
			</g>
		</g>
		<g>
			<g>
				<polygon class="st9" points="534.3,1280.55 478.51,1397.11 547.53,1413.86 571.13,1295.83 				"/>
				<g>
					
						<ellipse transform="matrix(0.1679 -0.9858 0.9858 0.1679 -833.8185 1628.0542)" class="st7" cx="547.53" cy="1307.97" rx="9.59" ry="9.59"/>
					<circle class="st7" cx="537.94" cy="1336.69" r="9.59"/>
				</g>
			</g>
			<g>
				<polygon class="st9" points="2059.37,1105.01 2149.9,1183.78 2084.16,1214.36 2031.93,1128.03 				"/>
				<g>
					<path class="st7" d="M2071.3,1162.67c-4.48-2.83-5.81-8.75-2.99-13.22c2.83-4.48,8.75-5.81,13.22-2.99
						c4.48,2.83,5.81,8.75,2.99,13.22C2081.69,1164.16,2075.77,1165.5,2071.3,1162.67z"/>
					<path class="st7" d="M2052.13,1139.24c-4.48-2.83-5.81-8.75-2.99-13.22c2.83-4.48,8.75-5.81,13.22-2.99
						c4.48,2.83,5.81,8.75,2.99,13.22C2062.52,1140.73,2056.6,1142.06,2052.13,1139.24z"/>
				</g>
			</g>
		</g>
	</g>
</g>
</svg>
