<?xml version="1.0" encoding="utf-8"?>
<!-- Generator: Adobe Illustrator 23.0.5, SVG Export Plug-In . SVG Version: 6.00 Build 0)  -->
<svg version="1.1" id="Layer_2" xmlns="http://www.w3.org/2000/svg" xmlns:xlink="http://www.w3.org/1999/xlink" x="0px" y="0px"
	 viewBox="0 0 288.55 58.35" style="enable-background:new 0 0 288.55 58.35;" xml:space="preserve">
<style type="text/css">
	.st0{fill:#181818;}
	.st1{fill:#161616;}
	.st2{fill:#141414;}
	.st3{fill:#191919;}
</style>
<path class="st0" d="M288.55,57.9c-4.68,0-8.91,0.13-13.11-0.11c-0.87-0.05-1.92-1.34-2.45-2.3c-3.42-6.31-6.72-12.69-10.57-20.03
	c0,8.06,0,15.07,0,22.24c-4.05,0-7.74,0-11.58,0c0-17.78,0-35.36,0-53.25c3.65,0,7.31,0,11.32,0c0,9.32,0,18.74,0,28.11
	c7.74,1.16,9.92-1.39,11.21-13.12c1.75,0,3.57,0,5.39,0c1.86,0,3.72,0,5.95,0c0.2,6.22-0.29,12.11-4.41,16.94
	c-1.6,1.88-1.6,3.26-0.48,5.27C282.73,46.84,285.47,52.13,288.55,57.9z"/>
<path class="st1" d="M118.72,46.07v9.23c0,0.19-0.13,0.36-0.32,0.4c-9.27,2.03-20.03,2.66-27.03-2.79
	c-6.11-5.37-8.53-12.83-6.04-21.52c1.96-6.87,8.38-12.23,15.75-12.96c5.32-0.52,11.26,0.79,14.51,3.09
	c7.01,4.96,7.97,15.8-0.98,19.53c-4.13,1.72-10.05,2.74-15.47,1.32c-0.08-0.02-3.02-0.83-3.31-0.84c5.58,9.73,21.41,4.3,22.89,4.33
	C118.94,45.85,118.72,45.84,118.72,46.07z M96.86,32.53c-0.58,0.65-0.44,1.38,1.46,1.47c3.4,0.16,6.38,0.13,9.44,0.13
	c1.6,0,2.62-0.57,2.54-1.71c-0.08-1.22-2.12-2.67-3.71-2.96C103.41,28.9,99.55,29.5,96.86,32.53z"/>
<path class="st2" d="M160.42,19.53c3.83,0,7.3,0,11.3,0c0,5.12-0.04,10.18,0.02,15.24c0.02,2.11,0.02,4.26,0.39,6.33
	c0.8,4.42,3.78,6.7,8.15,6.54c4.32-0.16,7.26-2.64,7.54-7.23c0.36-5.85,0.16-11.73,0.2-17.6c0.01-0.98,0-1.96,0-3.14
	c3.92,0,7.59,0,11.26,0c0,7.73,0.5,15.36-0.13,22.89c-0.76,9.16-9.41,15.84-19.24,15.8c-10.32-0.05-18.7-6.82-19.4-16.47
	C159.99,34.58,160.42,27.2,160.42,19.53z"/>
<path class="st1" d="M63.45,20.9c4.09,0,6.93,0,9.94,0c0,3.53,0,6.84,0,10.49c-2.94,0-5.88,0-9.17,0c0,8.88,0,17.43,0,26.24
	c-4.04,0-7.72,0-11.83,0c0-1.99,0-4.07,0-6.16c0-10.36-0.15-20.73,0.04-31.09C52.68,6.49,62.75-1.77,76.8,0.32c0,3.5,0,7.05,0,9.69
	c-4.21,0.45-8.05,0.67-10.91,3.63C64.57,15.01,63.35,17.47,63.45,20.9z"/>
<path class="st0" d="M11.26,57.77c-3.91,0-7.5,0-11.26,0C0,39.95,0,22.26,0,4.36c3.68,0,7.36,0,11.26,0
	C11.26,22.1,11.26,39.77,11.26,57.77z"/>
<path class="st0" d="M134.25,4.34c3.76,0,7.45,0,11.39,0c0,17.73,0,35.37,0,53.29c-3.7,0-7.48,0-11.39,0
	C134.25,39.89,134.25,22.21,134.25,4.34z"/>
<path class="st1" d="M238.54,19.68c0,3.69,0,7.15,0,10.63c-1.29,0-2.39-0.04-3.49,0.01c-6.34,0.24-9.19,3.21-9.22,9.61
	c-0.03,5.61-0.01,11.21-0.03,16.82c0,0.23-0.12,0.46-0.24,0.92c-3.61,0-7.29,0-11.02,0c0-7.48-0.65-14.99,0.15-22.34
	C215.89,24.29,226.9,17.4,238.54,19.68z"/>
<path class="st3" d="M37.54,19.64c0,12.6,0,25.15,0,37.98c-3.63,0-7.3,0-11.22,0c0-12.54,0-25.16,0-37.98
	C30,19.64,33.67,19.64,37.54,19.64z"/>
<path class="st3" d="M31.75,2.69c3.92-0.05,6.71,2.54,6.8,6.33c0.1,3.99-2.67,6.79-6.7,6.77c-3.74-0.02-6.63-2.86-6.63-6.5
	C25.23,5.41,27.86,2.74,31.75,2.69z"/>
</svg>
